<?xml version="1.0" encoding="UTF-8"?>
<svg xmlns="http://www.w3.org/2000/svg" xmlns:xlink="http://www.w3.org/1999/xlink" width="767pt" height="288pt" viewBox="0 0 767 288">
<defs>
<g>
<g id="glyph-0-0">
<path d="M 6.953125 -13.4375 L 1.578125 -13.4375 L 1.578125 4.484375 L 6.953125 4.484375 Z M 6.25 -12.765625 L 6.25 3.8125 L 2.28125 3.8125 L 2.28125 -12.765625 Z M 4.140625 -5.765625 C 3.640625 -5.765625 2.953125 -5.625 2.953125 -5.265625 C 2.953125 -5.109375 3.078125 -4.984375 3.265625 -4.984375 C 3.3125 -4.984375 3.359375 -4.984375 3.421875 -5.015625 C 3.640625 -5.125 3.828125 -5.15625 4.09375 -5.15625 C 4.734375 -5.15625 4.875 -4.765625 4.875 -4.28125 C 4.875 -3.59375 4.625 -3.34375 3.71875 -3.28125 L 3.71875 -2.21875 C 3.71875 -2.015625 3.859375 -1.90625 4.03125 -1.90625 C 4.1875 -1.90625 4.34375 -2.015625 4.34375 -2.21875 L 4.34375 -2.796875 C 5.203125 -2.921875 5.5625 -3.40625 5.5625 -4.296875 C 5.5625 -5.0625 5.25 -5.765625 4.140625 -5.765625 Z M 4.03125 -1.53125 C 3.78125 -1.53125 3.578125 -1.34375 3.578125 -1.09375 C 3.578125 -0.8125 3.78125 -0.609375 4.03125 -0.609375 C 4.28125 -0.609375 4.484375 -0.8125 4.484375 -1.09375 C 4.484375 -1.34375 4.28125 -1.53125 4.03125 -1.53125 Z M 4.03125 -1.53125 "/>
</g>
<g id="glyph-0-1">
<path d="M 2.5625 0.15625 C 2.90625 0.15625 3.234375 0.0625 3.5 -0.078125 L 3.1875 -0.890625 C 3.0625 -0.84375 2.921875 -0.8125 2.75 -0.8125 C 2.4375 -0.8125 2.328125 -1 2.328125 -1.359375 L 2.328125 -9.59375 L 1.15625 -9.453125 L 1.15625 -1.328125 C 1.15625 -0.375 1.703125 0.15625 2.5625 0.15625 Z M 2.5625 0.15625 "/>
</g>
<g id="glyph-0-2">
<path d="M 5.765625 -1.578125 L 5.765625 -4.65625 C 5.765625 -6.0625 5.015625 -6.890625 3.390625 -6.890625 C 2.640625 -6.890625 1.890625 -6.75 1.0625 -6.4375 L 1.359375 -5.578125 C 2.046875 -5.8125 2.671875 -5.9375 3.171875 -5.9375 C 4.109375 -5.9375 4.578125 -5.578125 4.578125 -4.609375 L 4.578125 -4.109375 L 3.546875 -4.109375 C 1.65625 -4.109375 0.578125 -3.328125 0.578125 -1.875 C 0.578125 -0.671875 1.375 0.15625 2.71875 0.15625 C 3.546875 0.15625 4.265625 -0.15625 4.734375 -0.859375 C 4.9375 -0.1875 5.375 0.078125 6.046875 0.15625 L 6.328125 -0.671875 C 5.96875 -0.796875 5.765625 -0.984375 5.765625 -1.578125 Z M 3 -0.734375 C 2.234375 -0.734375 1.828125 -1.15625 1.828125 -1.9375 C 1.828125 -2.859375 2.453125 -3.328125 3.703125 -3.328125 L 4.578125 -3.328125 L 4.578125 -1.78125 C 4.203125 -1.078125 3.6875 -0.734375 3 -0.734375 Z M 3 -0.734375 "/>
</g>
<g id="glyph-0-3">
<path d="M 7.984375 -6.890625 C 7.078125 -6.890625 6.46875 -6.40625 5.96875 -5.6875 C 5.71875 -6.453125 5.109375 -6.890625 4.28125 -6.890625 C 3.390625 -6.890625 2.78125 -6.4375 2.328125 -5.765625 L 2.234375 -6.75 L 1.21875 -6.75 L 1.21875 0 L 2.390625 0 L 2.390625 -4.78125 C 2.84375 -5.5 3.25 -5.96875 3.984375 -5.96875 C 4.484375 -5.96875 4.921875 -5.6875 4.921875 -4.671875 L 4.921875 0 L 6.109375 0 L 6.109375 -4.78125 C 6.5625 -5.5 6.96875 -5.96875 7.6875 -5.96875 C 8.203125 -5.96875 8.640625 -5.6875 8.640625 -4.671875 L 8.640625 0 L 9.8125 0 L 9.8125 -4.84375 C 9.8125 -6.109375 9.078125 -6.890625 7.984375 -6.890625 Z M 7.984375 -6.890625 "/>
</g>
<g id="glyph-0-4">
<path d="M 4.296875 -6.890625 C 3.484375 -6.890625 2.859375 -6.53125 2.390625 -5.90625 L 2.390625 -9.59375 L 1.21875 -9.453125 L 1.21875 0 L 2.25 0 L 2.375 -0.75 C 2.828125 -0.171875 3.421875 0.15625 4.15625 0.15625 C 5.796875 0.15625 6.8125 -1.265625 6.8125 -3.375 C 6.8125 -5.625 5.828125 -6.890625 4.296875 -6.890625 Z M 3.875 -0.78125 C 3.28125 -0.78125 2.734375 -1.15625 2.390625 -1.6875 L 2.390625 -4.90625 C 2.734375 -5.453125 3.21875 -5.96875 3.96875 -5.96875 C 4.90625 -5.96875 5.546875 -5.296875 5.546875 -3.375 C 5.546875 -1.53125 4.859375 -0.78125 3.875 -0.78125 Z M 3.875 -0.78125 "/>
</g>
<g id="glyph-0-5">
<path d="M 5.265625 -9.59375 L 5.265625 -6.0625 C 4.8125 -6.546875 4.234375 -6.890625 3.4375 -6.890625 C 1.796875 -6.890625 0.796875 -5.40625 0.796875 -3.34375 C 0.796875 -1.234375 1.703125 0.15625 3.34375 0.15625 C 4.171875 0.15625 4.84375 -0.25 5.28125 -0.9375 L 5.40625 0 L 6.4375 0 L 6.4375 -9.453125 Z M 3.59375 -0.78125 C 2.625 -0.78125 2.0625 -1.59375 2.0625 -3.359375 C 2.0625 -5.125 2.6875 -5.96875 3.703125 -5.96875 C 4.359375 -5.96875 4.84375 -5.625 5.265625 -5.078125 L 5.265625 -1.78125 C 4.8125 -1.15625 4.34375 -0.78125 3.59375 -0.78125 Z M 3.59375 -0.78125 "/>
</g>
<g id="glyph-0-6">
<path d="M 0.796875 -4.984375 L 5.609375 -4.984375 L 5.609375 -5.96875 L 0.796875 -5.96875 Z M 0.796875 -2.515625 L 5.609375 -2.515625 L 5.609375 -3.5 L 0.796875 -3.5 Z M 0.796875 -2.515625 "/>
</g>
<g id="glyph-0-7">
<path d="M 4.140625 -8.5625 L 3.09375 -8.5625 L 0.453125 -6.921875 L 0.953125 -6.09375 L 2.953125 -7.3125 L 2.953125 0 L 4.140625 0 Z M 4.140625 -8.5625 "/>
</g>
<g id="glyph-0-8">
<path d="M 6.421875 -3.046875 L 5.3125 -3.046875 L 5.3125 -5.34375 L 4.28125 -5.34375 L 4.1875 -3.046875 L 1.75 -3.046875 L 4.0625 -8.28125 L 3.078125 -8.6875 L 0.515625 -2.953125 L 0.515625 -2.109375 L 4.171875 -2.109375 L 4.171875 0 L 5.3125 0 L 5.3125 -2.109375 L 6.421875 -2.109375 Z M 6.421875 -3.046875 "/>
</g>
<g id="glyph-0-9">
<path d="M 3.578125 -8.6875 C 1.65625 -8.6875 0.703125 -7.109375 0.703125 -4.28125 C 0.703125 -1.4375 1.65625 0.15625 3.578125 0.15625 C 5.484375 0.15625 6.4375 -1.4375 6.4375 -4.28125 C 6.4375 -7.109375 5.484375 -8.6875 3.578125 -8.6875 Z M 3.578125 -7.75 C 4.625 -7.75 5.203125 -6.78125 5.203125 -4.28125 C 5.203125 -1.75 4.625 -0.78125 3.578125 -0.78125 C 2.5 -0.78125 1.9375 -1.75 1.9375 -4.28125 C 1.9375 -6.78125 2.5 -7.75 3.578125 -7.75 Z M 3.578125 -7.75 "/>
</g>
<g id="glyph-0-10">
<path d="M 5.546875 -8.5625 L 0.90625 -8.5625 L 0.90625 -4.25 L 1.828125 -4.25 C 2.234375 -4.4375 2.578125 -4.546875 3.046875 -4.546875 C 3.921875 -4.546875 4.609375 -4.078125 4.609375 -2.765625 C 4.609375 -1.515625 3.921875 -0.8125 2.859375 -0.8125 C 2.109375 -0.8125 1.5625 -1.078125 1.046875 -1.625 L 0.328125 -0.9375 C 1 -0.25 1.78125 0.15625 2.859375 0.15625 C 4.640625 0.15625 5.828125 -1.03125 5.828125 -2.734375 C 5.828125 -4.4375 4.84375 -5.453125 3.40625 -5.453125 C 2.9375 -5.453125 2.484375 -5.34375 2.03125 -5.125 L 2.03125 -7.640625 L 5.375 -7.640625 Z M 5.546875 -8.5625 "/>
</g>
<g id="glyph-0-11">
<path d="M 2.921875 -8.6875 C 1.84375 -8.6875 1.015625 -8.25 0.3125 -7.390625 L 1.109375 -6.78125 C 1.65625 -7.4375 2.140625 -7.71875 2.859375 -7.71875 C 3.6875 -7.71875 4.265625 -7.1875 4.265625 -6.296875 C 4.265625 -4.90625 3.515625 -4.078125 0.5 -0.9375 L 0.5 0 L 5.546875 0 L 5.6875 -0.984375 L 1.84375 -0.984375 C 4.46875 -3.609375 5.484375 -4.75 5.484375 -6.34375 C 5.484375 -7.671875 4.484375 -8.6875 2.921875 -8.6875 Z M 2.921875 -8.6875 "/>
</g>
<g id="glyph-0-12">
<path d="M 1.515625 -1.625 C 1.03125 -1.625 0.640625 -1.234375 0.640625 -0.75 C 0.640625 -0.25 1.03125 0.15625 1.515625 0.15625 C 2.03125 0.15625 2.421875 -0.25 2.421875 -0.75 C 2.421875 -1.234375 2.03125 -1.625 1.515625 -1.625 Z M 1.515625 -1.625 "/>
</g>
<g id="glyph-0-13">
<path d="M 2.875 -8.6875 C 1.953125 -8.6875 1.171875 -8.359375 0.4375 -7.671875 L 1.046875 -6.96875 C 1.625 -7.515625 2.140625 -7.734375 2.8125 -7.734375 C 3.671875 -7.734375 4.234375 -7.25 4.234375 -6.4375 C 4.234375 -5.4375 3.53125 -4.921875 2.6875 -4.921875 L 2.25 -4.921875 L 2.109375 -4.015625 L 2.75 -4.015625 C 3.78125 -4.015625 4.453125 -3.65625 4.453125 -2.484375 C 4.453125 -1.46875 3.796875 -0.8125 2.71875 -0.8125 C 2.03125 -0.8125 1.453125 -1.0625 0.890625 -1.65625 L 0.1875 -1 C 0.84375 -0.21875 1.734375 0.15625 2.765625 0.15625 C 4.546875 0.15625 5.6875 -0.96875 5.6875 -2.46875 C 5.6875 -3.765625 4.828125 -4.4375 3.75 -4.546875 C 4.703125 -4.765625 5.40625 -5.421875 5.40625 -6.515625 C 5.40625 -7.671875 4.515625 -8.6875 2.875 -8.6875 Z M 2.875 -8.6875 "/>
</g>
<g id="glyph-1-0">
<path d="M 8.6875 -16.796875 L 1.96875 -16.796875 L 1.96875 5.59375 L 8.6875 5.59375 Z M 7.828125 -15.96875 L 7.828125 4.765625 L 2.84375 4.765625 L 2.84375 -15.96875 Z M 5.1875 -7.21875 C 4.5625 -7.21875 3.703125 -7.03125 3.703125 -6.59375 C 3.703125 -6.390625 3.84375 -6.21875 4.078125 -6.21875 C 4.140625 -6.21875 4.203125 -6.234375 4.28125 -6.265625 C 4.5625 -6.40625 4.78125 -6.453125 5.125 -6.453125 C 5.921875 -6.453125 6.09375 -5.96875 6.09375 -5.34375 C 6.09375 -4.5 5.796875 -4.171875 4.640625 -4.109375 L 4.640625 -2.765625 C 4.640625 -2.53125 4.828125 -2.390625 5.046875 -2.390625 C 5.234375 -2.390625 5.4375 -2.53125 5.4375 -2.765625 L 5.4375 -3.484375 C 6.515625 -3.640625 6.953125 -4.25 6.953125 -5.375 C 6.953125 -6.34375 6.5625 -7.21875 5.1875 -7.21875 Z M 5.046875 -1.921875 C 4.71875 -1.921875 4.484375 -1.6875 4.484375 -1.359375 C 4.484375 -1.03125 4.71875 -0.765625 5.046875 -0.765625 C 5.359375 -0.765625 5.59375 -1.03125 5.59375 -1.359375 C 5.59375 -1.6875 5.359375 -1.921875 5.046875 -1.921875 Z M 5.046875 -1.921875 "/>
</g>
<g id="glyph-1-1">
<path d="M 5.453125 -11.21875 C 2.953125 -11.21875 0.875 -9.25 0.875 -5.515625 C 0.875 -1.8125 2.8125 0.1875 5.484375 0.1875 C 6.96875 0.1875 8.046875 -0.421875 8.640625 -1.046875 L 7.875 -2.015625 C 7.25 -1.546875 6.578125 -1.09375 5.53125 -1.09375 C 3.828125 -1.09375 2.5 -2.34375 2.5 -5.515625 C 2.5 -8.84375 3.890625 -9.96875 5.546875 -9.96875 C 6.3125 -9.96875 6.984375 -9.71875 7.6875 -9.15625 L 8.515625 -10.125 C 7.625 -10.828125 6.84375 -11.21875 5.453125 -11.21875 Z M 5.453125 -11.21875 "/>
</g>
<g id="glyph-1-2">
<path d="M 4.6875 -8.625 C 2.28125 -8.625 0.90625 -6.8125 0.90625 -4.203125 C 0.90625 -1.53125 2.265625 0.1875 4.671875 0.1875 C 7.0625 0.1875 8.4375 -1.609375 8.4375 -4.21875 C 8.4375 -6.890625 7.09375 -8.625 4.6875 -8.625 Z M 4.6875 -7.4375 C 6.078125 -7.4375 6.84375 -6.421875 6.84375 -4.21875 C 6.84375 -2.015625 6.078125 -0.984375 4.671875 -0.984375 C 3.265625 -0.984375 2.5 -2.015625 2.5 -4.203125 C 2.5 -6.421875 3.28125 -7.4375 4.6875 -7.4375 Z M 4.6875 -7.4375 "/>
</g>
<g id="glyph-1-3">
<path d="M 7.796875 -8.4375 L 6.3125 -8.4375 L 6.3125 -2.421875 C 5.8125 -1.5625 5.125 -0.953125 4.203125 -0.953125 C 3.296875 -0.953125 2.90625 -1.390625 2.90625 -2.546875 L 2.90625 -8.4375 L 1.4375 -8.4375 L 1.4375 -2.390625 C 1.4375 -0.734375 2.3125 0.1875 3.796875 0.1875 C 4.984375 0.1875 5.78125 -0.28125 6.421875 -1.3125 L 6.53125 0 L 7.796875 0 Z M 7.796875 -8.4375 "/>
</g>
<g id="glyph-1-4">
<path d="M 5.484375 -8.625 C 4.390625 -8.625 3.484375 -8.046875 2.90625 -7.1875 L 2.78125 -8.4375 L 1.515625 -8.4375 L 1.515625 0 L 2.984375 0 L 2.984375 -5.984375 C 3.546875 -6.875 4.1875 -7.46875 5.140625 -7.46875 C 5.953125 -7.46875 6.46875 -7.109375 6.46875 -5.84375 L 6.46875 0 L 7.9375 0 L 7.9375 -6.046875 C 7.9375 -7.640625 7.046875 -8.625 5.484375 -8.625 Z M 5.484375 -8.625 "/>
</g>
<g id="glyph-1-5">
<path d="M 5.21875 -1.390625 C 4.796875 -1.140625 4.46875 -1.03125 4.09375 -1.03125 C 3.359375 -1.03125 3.09375 -1.421875 3.09375 -2.265625 L 3.09375 -7.296875 L 4.921875 -7.296875 L 5.09375 -8.4375 L 3.09375 -8.4375 L 3.09375 -10.515625 L 1.609375 -10.34375 L 1.609375 -8.4375 L 0.140625 -8.4375 L 0.140625 -7.296875 L 1.609375 -7.296875 L 1.609375 -2.203125 C 1.609375 -0.640625 2.46875 0.1875 3.890625 0.1875 C 4.609375 0.1875 5.21875 0 5.78125 -0.390625 Z M 5.21875 -1.390625 "/>
</g>
<g id="glyph-2-0">
<path d="M -16.796875 -8.6875 L -16.796875 -1.96875 L 5.59375 -1.96875 L 5.59375 -8.6875 Z M -15.96875 -7.828125 L 4.765625 -7.828125 L 4.765625 -2.84375 L -15.96875 -2.84375 Z M -7.21875 -5.1875 C -7.21875 -4.5625 -7.03125 -3.703125 -6.59375 -3.703125 C -6.390625 -3.703125 -6.21875 -3.84375 -6.21875 -4.078125 C -6.21875 -4.140625 -6.234375 -4.203125 -6.265625 -4.28125 C -6.40625 -4.5625 -6.453125 -4.78125 -6.453125 -5.125 C -6.453125 -5.921875 -5.96875 -6.09375 -5.34375 -6.09375 C -4.5 -6.09375 -4.171875 -5.796875 -4.109375 -4.640625 L -2.765625 -4.640625 C -2.53125 -4.640625 -2.390625 -4.828125 -2.390625 -5.046875 C -2.390625 -5.234375 -2.53125 -5.4375 -2.765625 -5.4375 L -3.484375 -5.4375 C -3.640625 -6.515625 -4.25 -6.953125 -5.375 -6.953125 C -6.34375 -6.953125 -7.21875 -6.5625 -7.21875 -5.1875 Z M -1.921875 -5.046875 C -1.921875 -4.71875 -1.6875 -4.484375 -1.359375 -4.484375 C -1.03125 -4.484375 -0.765625 -4.71875 -0.765625 -5.046875 C -0.765625 -5.359375 -1.03125 -5.59375 -1.359375 -5.59375 C -1.6875 -5.59375 -1.921875 -5.359375 -1.921875 -5.046875 Z M -1.921875 -5.046875 "/>
</g>
<g id="glyph-2-1">
<path d="M -11.03125 -4.5 L -11.03125 -1.59375 L 0 -1.59375 L 0 -3.125 L -4.046875 -3.125 L -4.046875 -4.515625 C -4.046875 -6.9375 -5.09375 -8.78125 -7.609375 -8.78125 C -9.9375 -8.78125 -11.03125 -7.15625 -11.03125 -4.5 Z M -5.25 -4.453125 L -5.25 -3.125 L -9.84375 -3.125 L -9.84375 -4.484375 C -9.84375 -6.109375 -9.25 -7.171875 -7.59375 -7.171875 C -5.734375 -7.171875 -5.25 -6.078125 -5.25 -4.453125 Z M -5.25 -4.453125 "/>
</g>
<g id="glyph-2-2">
<path d="M -8.625 -5.1875 C -8.625 -4.15625 -7.984375 -3.375 -6.71875 -2.921875 L -8.4375 -2.78125 L -8.4375 -1.515625 L 0 -1.515625 L 0 -2.984375 L -4.8125 -2.984375 C -6.4375 -3.34375 -7.1875 -3.953125 -7.1875 -5.015625 C -7.1875 -5.3125 -7.15625 -5.484375 -7.09375 -5.75 L -8.53125 -6.015625 C -8.59375 -5.765625 -8.625 -5.453125 -8.625 -5.1875 Z M -8.625 -5.1875 "/>
</g>
<g id="glyph-2-3">
<path d="M -8.625 -4.6875 C -8.625 -2.28125 -6.8125 -0.90625 -4.203125 -0.90625 C -1.53125 -0.90625 0.1875 -2.265625 0.1875 -4.671875 C 0.1875 -7.0625 -1.609375 -8.4375 -4.21875 -8.4375 C -6.890625 -8.4375 -8.625 -7.09375 -8.625 -4.6875 Z M -7.4375 -4.6875 C -7.4375 -6.078125 -6.421875 -6.84375 -4.21875 -6.84375 C -2.015625 -6.84375 -0.984375 -6.078125 -0.984375 -4.671875 C -0.984375 -3.265625 -2.015625 -2.5 -4.203125 -2.5 C -6.421875 -2.5 -7.4375 -3.28125 -7.4375 -4.6875 Z M -7.4375 -4.6875 "/>
</g>
<g id="glyph-2-4">
<path d="M -8.625 -5.375 C -8.625 -4.359375 -8.15625 -3.5625 -7.375 -2.984375 L -12 -2.984375 L -11.828125 -1.515625 L 0 -1.515625 L 0 -2.8125 L -0.921875 -2.953125 C -0.21875 -3.53125 0.1875 -4.265625 0.1875 -5.203125 C 0.1875 -7.25 -1.578125 -8.515625 -4.21875 -8.515625 C -7.046875 -8.515625 -8.625 -7.28125 -8.625 -5.375 Z M -0.96875 -4.84375 C -0.96875 -4.09375 -1.4375 -3.421875 -2.109375 -2.984375 L -6.140625 -2.984375 C -6.8125 -3.421875 -7.453125 -4.03125 -7.453125 -4.953125 C -7.453125 -6.140625 -6.625 -6.921875 -4.21875 -6.921875 C -1.921875 -6.921875 -0.96875 -6.078125 -0.96875 -4.84375 Z M -0.96875 -4.84375 "/>
</g>
<g id="glyph-2-5">
<path d="M -1.96875 -7.203125 L -5.828125 -7.203125 C -7.578125 -7.203125 -8.625 -6.265625 -8.625 -4.234375 C -8.625 -3.296875 -8.4375 -2.375 -8.046875 -1.328125 L -6.96875 -1.703125 C -7.265625 -2.5625 -7.421875 -3.34375 -7.421875 -3.96875 C -7.421875 -5.140625 -6.96875 -5.734375 -5.765625 -5.734375 L -5.140625 -5.734375 L -5.140625 -4.4375 C -5.140625 -2.078125 -4.15625 -0.71875 -2.359375 -0.71875 C -0.84375 -0.71875 0.1875 -1.734375 0.1875 -3.40625 C 0.1875 -4.4375 -0.1875 -5.328125 -1.078125 -5.921875 C -0.234375 -6.171875 0.09375 -6.71875 0.1875 -7.5625 L -0.828125 -7.90625 C -0.984375 -7.46875 -1.234375 -7.203125 -1.96875 -7.203125 Z M -0.90625 -3.75 C -0.90625 -2.78125 -1.4375 -2.28125 -2.4375 -2.28125 C -3.578125 -2.28125 -4.15625 -3.078125 -4.15625 -4.625 L -4.15625 -5.734375 L -2.21875 -5.734375 C -1.34375 -5.25 -0.90625 -4.609375 -0.90625 -3.75 Z M -0.90625 -3.75 "/>
</g>
<g id="glyph-2-6">
<path d="M -12.484375 -2.234375 C -12.484375 -1.625 -12.046875 -1.21875 -11.46875 -1.21875 C -10.90625 -1.21875 -10.484375 -1.625 -10.484375 -2.234375 C -10.484375 -2.859375 -10.90625 -3.28125 -11.46875 -3.28125 C -12.046875 -3.28125 -12.484375 -2.859375 -12.484375 -2.234375 Z M -8.4375 -2.984375 L -8.4375 -1.515625 L 0 -1.515625 L 0 -2.984375 Z M -8.4375 -2.984375 "/>
</g>
<g id="glyph-2-7">
<path d="M 0.1875 -3.203125 C 0.1875 -3.625 0.078125 -4.046875 -0.09375 -4.375 L -1.125 -3.984375 C -1.0625 -3.828125 -1.03125 -3.640625 -1.03125 -3.4375 C -1.03125 -3.0625 -1.25 -2.90625 -1.703125 -2.90625 L -12 -2.90625 L -11.828125 -1.4375 L -1.65625 -1.4375 C -0.46875 -1.4375 0.1875 -2.125 0.1875 -3.203125 Z M 0.1875 -3.203125 "/>
</g>
<g id="glyph-2-8">
<path d="M -1.390625 -5.21875 C -1.140625 -4.796875 -1.03125 -4.46875 -1.03125 -4.09375 C -1.03125 -3.359375 -1.421875 -3.09375 -2.265625 -3.09375 L -7.296875 -3.09375 L -7.296875 -4.921875 L -8.4375 -5.09375 L -8.4375 -3.09375 L -10.515625 -3.09375 L -10.34375 -1.609375 L -8.4375 -1.609375 L -8.4375 -0.140625 L -7.296875 -0.140625 L -7.296875 -1.609375 L -2.203125 -1.609375 C -0.640625 -1.609375 0.1875 -2.46875 0.1875 -3.890625 C 0.1875 -4.609375 0 -5.21875 -0.390625 -5.78125 Z M -1.390625 -5.21875 "/>
</g>
<g id="glyph-2-9">
<path d="M -8.4375 -7.71875 L -8.4375 -6.1875 L -1.078125 -3.984375 L -8.4375 -1.734375 L -8.4375 -0.15625 L 0 -2.984375 L 0 -3.484375 C 1.3125 -3.015625 1.96875 -2.53125 2.25 -0.8125 L 3.40625 -0.96875 C 3.15625 -3.3125 1.84375 -4.296875 0.046875 -4.890625 Z M -8.4375 -7.71875 "/>
</g>
<g id="glyph-2-10">
</g>
<g id="glyph-2-11">
<path d="M -11.03125 -10.546875 L -11.03125 -8.484375 L -3.015625 -6.265625 L -11.03125 -3.953125 L -11.03125 -1.90625 L 0 -0.984375 L 0 -2.4375 L -4.859375 -2.796875 C -6.484375 -2.921875 -8.1875 -3.015625 -9.484375 -3.015625 L -1.25 -5.515625 L -1.25 -6.9375 L -9.46875 -9.328125 C -8.5625 -9.34375 -6.703125 -9.453125 -4.96875 -9.59375 L 0 -9.984375 L 0 -11.453125 Z M -11.03125 -10.546875 "/>
</g>
<g id="glyph-2-12">
<path d="M -8.625 -3.8125 C -8.625 -2.0625 -7.640625 -0.765625 -6.296875 -0.765625 C -5.125 -0.765625 -4.34375 -1.484375 -3.859375 -3.3125 C -3.421875 -4.9375 -3.109375 -5.359375 -2.265625 -5.359375 C -1.46875 -5.359375 -0.984375 -4.65625 -0.984375 -3.546875 C -0.984375 -2.640625 -1.296875 -1.859375 -1.8125 -1.1875 L -0.90625 -0.40625 C -0.265625 -1.140625 0.1875 -2.15625 0.1875 -3.578125 C 0.1875 -5.296875 -0.609375 -6.90625 -2.375 -6.90625 C -3.84375 -6.90625 -4.546875 -5.890625 -4.984375 -4.109375 C -5.34375 -2.75 -5.65625 -2.296875 -6.359375 -2.296875 C -7.03125 -2.296875 -7.453125 -2.890625 -7.453125 -3.859375 C -7.453125 -4.640625 -7.21875 -5.296875 -6.734375 -6.046875 L -7.65625 -6.671875 C -8.265625 -5.875 -8.625 -4.984375 -8.625 -3.8125 Z M -8.625 -3.8125 "/>
</g>
</g>
<clipPath id="clip-0">
<path clip-rule="nonzero" d="M 52.128906 32.722656 L 282.449219 32.722656 L 282.449219 240.871094 L 52.128906 240.871094 Z M 52.128906 32.722656 "/>
</clipPath>
<clipPath id="clip-1">
<path clip-rule="nonzero" d="M 52.128906 205 L 282.449219 205 L 282.449219 207 L 52.128906 207 Z M 52.128906 205 "/>
</clipPath>
<clipPath id="clip-2">
<path clip-rule="nonzero" d="M 52.128906 153 L 282.449219 153 L 282.449219 155 L 52.128906 155 Z M 52.128906 153 "/>
</clipPath>
<clipPath id="clip-3">
<path clip-rule="nonzero" d="M 52.128906 102 L 282.449219 102 L 282.449219 104 L 52.128906 104 Z M 52.128906 102 "/>
</clipPath>
<clipPath id="clip-4">
<path clip-rule="nonzero" d="M 52.128906 50 L 282.449219 50 L 282.449219 52 L 52.128906 52 Z M 52.128906 50 "/>
</clipPath>
<clipPath id="clip-5">
<path clip-rule="nonzero" d="M 91 32.722656 L 93 32.722656 L 93 240.871094 L 91 240.871094 Z M 91 32.722656 "/>
</clipPath>
<clipPath id="clip-6">
<path clip-rule="nonzero" d="M 141 32.722656 L 143 32.722656 L 143 240.871094 L 141 240.871094 Z M 141 32.722656 "/>
</clipPath>
<clipPath id="clip-7">
<path clip-rule="nonzero" d="M 191 32.722656 L 193 32.722656 L 193 240.871094 L 191 240.871094 Z M 191 32.722656 "/>
</clipPath>
<clipPath id="clip-8">
<path clip-rule="nonzero" d="M 242 32.722656 L 243 32.722656 L 243 240.871094 L 242 240.871094 Z M 242 32.722656 "/>
</clipPath>
<clipPath id="clip-9">
<path clip-rule="nonzero" d="M 52.128906 230 L 282.449219 230 L 282.449219 233 L 52.128906 233 Z M 52.128906 230 "/>
</clipPath>
<clipPath id="clip-10">
<path clip-rule="nonzero" d="M 52.128906 179 L 282.449219 179 L 282.449219 181 L 52.128906 181 Z M 52.128906 179 "/>
</clipPath>
<clipPath id="clip-11">
<path clip-rule="nonzero" d="M 52.128906 127 L 282.449219 127 L 282.449219 130 L 52.128906 130 Z M 52.128906 127 "/>
</clipPath>
<clipPath id="clip-12">
<path clip-rule="nonzero" d="M 52.128906 76 L 282.449219 76 L 282.449219 78 L 52.128906 78 Z M 52.128906 76 "/>
</clipPath>
<clipPath id="clip-13">
<path clip-rule="nonzero" d="M 66 32.722656 L 68 32.722656 L 68 240.871094 L 66 240.871094 Z M 66 32.722656 "/>
</clipPath>
<clipPath id="clip-14">
<path clip-rule="nonzero" d="M 116 32.722656 L 118 32.722656 L 118 240.871094 L 116 240.871094 Z M 116 32.722656 "/>
</clipPath>
<clipPath id="clip-15">
<path clip-rule="nonzero" d="M 166 32.722656 L 169 32.722656 L 169 240.871094 L 166 240.871094 Z M 166 32.722656 "/>
</clipPath>
<clipPath id="clip-16">
<path clip-rule="nonzero" d="M 216 32.722656 L 219 32.722656 L 219 240.871094 L 216 240.871094 Z M 216 32.722656 "/>
</clipPath>
<clipPath id="clip-17">
<path clip-rule="nonzero" d="M 266 32.722656 L 269 32.722656 L 269 240.871094 L 266 240.871094 Z M 266 32.722656 "/>
</clipPath>
<clipPath id="clip-18">
<path clip-rule="nonzero" d="M 52.128906 32.722656 L 282.449219 32.722656 L 282.449219 240.871094 L 52.128906 240.871094 Z M 52.128906 32.722656 "/>
</clipPath>
<clipPath id="clip-19">
<path clip-rule="nonzero" d="M 290.417969 32.722656 L 520.738281 32.722656 L 520.738281 240.871094 L 290.417969 240.871094 Z M 290.417969 32.722656 "/>
</clipPath>
<clipPath id="clip-20">
<path clip-rule="nonzero" d="M 290.417969 205 L 520.738281 205 L 520.738281 207 L 290.417969 207 Z M 290.417969 205 "/>
</clipPath>
<clipPath id="clip-21">
<path clip-rule="nonzero" d="M 290.417969 153 L 520.738281 153 L 520.738281 155 L 290.417969 155 Z M 290.417969 153 "/>
</clipPath>
<clipPath id="clip-22">
<path clip-rule="nonzero" d="M 290.417969 102 L 520.738281 102 L 520.738281 104 L 290.417969 104 Z M 290.417969 102 "/>
</clipPath>
<clipPath id="clip-23">
<path clip-rule="nonzero" d="M 290.417969 50 L 520.738281 50 L 520.738281 52 L 290.417969 52 Z M 290.417969 50 "/>
</clipPath>
<clipPath id="clip-24">
<path clip-rule="nonzero" d="M 330 32.722656 L 331 32.722656 L 331 240.871094 L 330 240.871094 Z M 330 32.722656 "/>
</clipPath>
<clipPath id="clip-25">
<path clip-rule="nonzero" d="M 380 32.722656 L 381 32.722656 L 381 240.871094 L 380 240.871094 Z M 380 32.722656 "/>
</clipPath>
<clipPath id="clip-26">
<path clip-rule="nonzero" d="M 430 32.722656 L 432 32.722656 L 432 240.871094 L 430 240.871094 Z M 430 32.722656 "/>
</clipPath>
<clipPath id="clip-27">
<path clip-rule="nonzero" d="M 480 32.722656 L 482 32.722656 L 482 240.871094 L 480 240.871094 Z M 480 32.722656 "/>
</clipPath>
<clipPath id="clip-28">
<path clip-rule="nonzero" d="M 290.417969 230 L 520.738281 230 L 520.738281 233 L 290.417969 233 Z M 290.417969 230 "/>
</clipPath>
<clipPath id="clip-29">
<path clip-rule="nonzero" d="M 290.417969 179 L 520.738281 179 L 520.738281 181 L 290.417969 181 Z M 290.417969 179 "/>
</clipPath>
<clipPath id="clip-30">
<path clip-rule="nonzero" d="M 290.417969 127 L 520.738281 127 L 520.738281 130 L 290.417969 130 Z M 290.417969 127 "/>
</clipPath>
<clipPath id="clip-31">
<path clip-rule="nonzero" d="M 290.417969 76 L 520.738281 76 L 520.738281 78 L 290.417969 78 Z M 290.417969 76 "/>
</clipPath>
<clipPath id="clip-32">
<path clip-rule="nonzero" d="M 304 32.722656 L 307 32.722656 L 307 240.871094 L 304 240.871094 Z M 304 32.722656 "/>
</clipPath>
<clipPath id="clip-33">
<path clip-rule="nonzero" d="M 354 32.722656 L 357 32.722656 L 357 240.871094 L 354 240.871094 Z M 354 32.722656 "/>
</clipPath>
<clipPath id="clip-34">
<path clip-rule="nonzero" d="M 404 32.722656 L 407 32.722656 L 407 240.871094 L 404 240.871094 Z M 404 32.722656 "/>
</clipPath>
<clipPath id="clip-35">
<path clip-rule="nonzero" d="M 454 32.722656 L 457 32.722656 L 457 240.871094 L 454 240.871094 Z M 454 32.722656 "/>
</clipPath>
<clipPath id="clip-36">
<path clip-rule="nonzero" d="M 504 32.722656 L 507 32.722656 L 507 240.871094 L 504 240.871094 Z M 504 32.722656 "/>
</clipPath>
<clipPath id="clip-37">
<path clip-rule="nonzero" d="M 290.417969 32.722656 L 520.738281 32.722656 L 520.738281 240.871094 L 290.417969 240.871094 Z M 290.417969 32.722656 "/>
</clipPath>
<clipPath id="clip-38">
<path clip-rule="nonzero" d="M 528.710938 32.722656 L 759.03125 32.722656 L 759.03125 240.871094 L 528.710938 240.871094 Z M 528.710938 32.722656 "/>
</clipPath>
<clipPath id="clip-39">
<path clip-rule="nonzero" d="M 528.710938 205 L 759.03125 205 L 759.03125 207 L 528.710938 207 Z M 528.710938 205 "/>
</clipPath>
<clipPath id="clip-40">
<path clip-rule="nonzero" d="M 528.710938 153 L 759.03125 153 L 759.03125 155 L 528.710938 155 Z M 528.710938 153 "/>
</clipPath>
<clipPath id="clip-41">
<path clip-rule="nonzero" d="M 528.710938 102 L 759.03125 102 L 759.03125 104 L 528.710938 104 Z M 528.710938 102 "/>
</clipPath>
<clipPath id="clip-42">
<path clip-rule="nonzero" d="M 528.710938 50 L 759.03125 50 L 759.03125 52 L 528.710938 52 Z M 528.710938 50 "/>
</clipPath>
<clipPath id="clip-43">
<path clip-rule="nonzero" d="M 568 32.722656 L 570 32.722656 L 570 240.871094 L 568 240.871094 Z M 568 32.722656 "/>
</clipPath>
<clipPath id="clip-44">
<path clip-rule="nonzero" d="M 618 32.722656 L 620 32.722656 L 620 240.871094 L 618 240.871094 Z M 618 32.722656 "/>
</clipPath>
<clipPath id="clip-45">
<path clip-rule="nonzero" d="M 668 32.722656 L 670 32.722656 L 670 240.871094 L 668 240.871094 Z M 668 32.722656 "/>
</clipPath>
<clipPath id="clip-46">
<path clip-rule="nonzero" d="M 718 32.722656 L 720 32.722656 L 720 240.871094 L 718 240.871094 Z M 718 32.722656 "/>
</clipPath>
<clipPath id="clip-47">
<path clip-rule="nonzero" d="M 528.710938 230 L 759.03125 230 L 759.03125 233 L 528.710938 233 Z M 528.710938 230 "/>
</clipPath>
<clipPath id="clip-48">
<path clip-rule="nonzero" d="M 528.710938 179 L 759.03125 179 L 759.03125 181 L 528.710938 181 Z M 528.710938 179 "/>
</clipPath>
<clipPath id="clip-49">
<path clip-rule="nonzero" d="M 528.710938 127 L 759.03125 127 L 759.03125 130 L 528.710938 130 Z M 528.710938 127 "/>
</clipPath>
<clipPath id="clip-50">
<path clip-rule="nonzero" d="M 528.710938 76 L 759.03125 76 L 759.03125 78 L 528.710938 78 Z M 528.710938 76 "/>
</clipPath>
<clipPath id="clip-51">
<path clip-rule="nonzero" d="M 542 32.722656 L 545 32.722656 L 545 240.871094 L 542 240.871094 Z M 542 32.722656 "/>
</clipPath>
<clipPath id="clip-52">
<path clip-rule="nonzero" d="M 593 32.722656 L 595 32.722656 L 595 240.871094 L 593 240.871094 Z M 593 32.722656 "/>
</clipPath>
<clipPath id="clip-53">
<path clip-rule="nonzero" d="M 643 32.722656 L 645 32.722656 L 645 240.871094 L 643 240.871094 Z M 643 32.722656 "/>
</clipPath>
<clipPath id="clip-54">
<path clip-rule="nonzero" d="M 693 32.722656 L 695 32.722656 L 695 240.871094 L 693 240.871094 Z M 693 32.722656 "/>
</clipPath>
<clipPath id="clip-55">
<path clip-rule="nonzero" d="M 743 32.722656 L 745 32.722656 L 745 240.871094 L 743 240.871094 Z M 743 32.722656 "/>
</clipPath>
<clipPath id="clip-56">
<path clip-rule="nonzero" d="M 528.710938 32.722656 L 759.03125 32.722656 L 759.03125 240.871094 L 528.710938 240.871094 Z M 528.710938 32.722656 "/>
</clipPath>
<clipPath id="clip-57">
<path clip-rule="nonzero" d="M 52.128906 7.96875 L 282.449219 7.96875 L 282.449219 32.722656 L 52.128906 32.722656 Z M 52.128906 7.96875 "/>
</clipPath>
<clipPath id="clip-58">
<path clip-rule="nonzero" d="M 290.417969 7.96875 L 520.738281 7.96875 L 520.738281 32.722656 L 290.417969 32.722656 Z M 290.417969 7.96875 "/>
</clipPath>
<clipPath id="clip-59">
<path clip-rule="nonzero" d="M 528.710938 7.96875 L 759.03125 7.96875 L 759.03125 32.722656 L 528.710938 32.722656 Z M 528.710938 7.96875 "/>
</clipPath>
</defs>
<rect x="-76.7" y="-28.8" width="920.4" height="345.6" fill="rgb(100%, 100%, 100%)" fill-opacity="1"/>
<rect x="-76.7" y="-28.8" width="920.4" height="345.6" fill="rgb(100%, 100%, 100%)" fill-opacity="1"/>
<path fill="none" stroke-width="1.551969" stroke-linecap="round" stroke-linejoin="round" stroke="rgb(100%, 100%, 100%)" stroke-opacity="1" stroke-miterlimit="10" d="M 0 288 L 767 288 L 767 0 L 0 0 Z M 0 288 "/>
<g clip-path="url(#clip-0)">
<path fill-rule="nonzero" fill="rgb(100%, 100%, 100%)" fill-opacity="1" d="M 52.128906 240.871094 L 282.449219 240.871094 L 282.449219 32.722656 L 52.128906 32.722656 Z M 52.128906 240.871094 "/>
</g>
<g clip-path="url(#clip-1)">
<path fill="none" stroke-width="0.775984" stroke-linecap="butt" stroke-linejoin="round" stroke="rgb(92.156863%, 92.156863%, 92.156863%)" stroke-opacity="1" stroke-miterlimit="10" d="M 52.128906 205.691406 L 282.449219 205.691406 "/>
</g>
<g clip-path="url(#clip-2)">
<path fill="none" stroke-width="0.775984" stroke-linecap="butt" stroke-linejoin="round" stroke="rgb(92.156863%, 92.156863%, 92.156863%)" stroke-opacity="1" stroke-miterlimit="10" d="M 52.128906 154.253906 L 282.449219 154.253906 "/>
</g>
<g clip-path="url(#clip-3)">
<path fill="none" stroke-width="0.775984" stroke-linecap="butt" stroke-linejoin="round" stroke="rgb(92.156863%, 92.156863%, 92.156863%)" stroke-opacity="1" stroke-miterlimit="10" d="M 52.128906 102.816406 L 282.449219 102.816406 "/>
</g>
<g clip-path="url(#clip-4)">
<path fill="none" stroke-width="0.775984" stroke-linecap="butt" stroke-linejoin="round" stroke="rgb(92.156863%, 92.156863%, 92.156863%)" stroke-opacity="1" stroke-miterlimit="10" d="M 52.128906 51.378906 L 282.449219 51.378906 "/>
</g>
<g clip-path="url(#clip-5)">
<path fill="none" stroke-width="0.775984" stroke-linecap="butt" stroke-linejoin="round" stroke="rgb(92.156863%, 92.156863%, 92.156863%)" stroke-opacity="1" stroke-miterlimit="10" d="M 92.152344 240.871094 L 92.152344 32.722656 "/>
</g>
<g clip-path="url(#clip-6)">
<path fill="none" stroke-width="0.775984" stroke-linecap="butt" stroke-linejoin="round" stroke="rgb(92.156863%, 92.156863%, 92.156863%)" stroke-opacity="1" stroke-miterlimit="10" d="M 142.242188 240.871094 L 142.242188 32.722656 "/>
</g>
<g clip-path="url(#clip-7)">
<path fill="none" stroke-width="0.775984" stroke-linecap="butt" stroke-linejoin="round" stroke="rgb(92.156863%, 92.156863%, 92.156863%)" stroke-opacity="1" stroke-miterlimit="10" d="M 192.335938 240.871094 L 192.335938 32.722656 "/>
</g>
<g clip-path="url(#clip-8)">
<path fill="none" stroke-width="0.775984" stroke-linecap="butt" stroke-linejoin="round" stroke="rgb(92.156863%, 92.156863%, 92.156863%)" stroke-opacity="1" stroke-miterlimit="10" d="M 242.425781 240.871094 L 242.425781 32.722656 "/>
</g>
<g clip-path="url(#clip-9)">
<path fill="none" stroke-width="1.551969" stroke-linecap="butt" stroke-linejoin="round" stroke="rgb(92.156863%, 92.156863%, 92.156863%)" stroke-opacity="1" stroke-miterlimit="10" d="M 52.128906 231.410156 L 282.449219 231.410156 "/>
</g>
<g clip-path="url(#clip-10)">
<path fill="none" stroke-width="1.551969" stroke-linecap="butt" stroke-linejoin="round" stroke="rgb(92.156863%, 92.156863%, 92.156863%)" stroke-opacity="1" stroke-miterlimit="10" d="M 52.128906 179.972656 L 282.449219 179.972656 "/>
</g>
<g clip-path="url(#clip-11)">
<path fill="none" stroke-width="1.551969" stroke-linecap="butt" stroke-linejoin="round" stroke="rgb(92.156863%, 92.156863%, 92.156863%)" stroke-opacity="1" stroke-miterlimit="10" d="M 52.128906 128.535156 L 282.449219 128.535156 "/>
</g>
<g clip-path="url(#clip-12)">
<path fill="none" stroke-width="1.551969" stroke-linecap="butt" stroke-linejoin="round" stroke="rgb(92.156863%, 92.156863%, 92.156863%)" stroke-opacity="1" stroke-miterlimit="10" d="M 52.128906 77.097656 L 282.449219 77.097656 "/>
</g>
<g clip-path="url(#clip-13)">
<path fill="none" stroke-width="1.551969" stroke-linecap="butt" stroke-linejoin="round" stroke="rgb(92.156863%, 92.156863%, 92.156863%)" stroke-opacity="1" stroke-miterlimit="10" d="M 67.105469 240.871094 L 67.105469 32.722656 "/>
</g>
<g clip-path="url(#clip-14)">
<path fill="none" stroke-width="1.551969" stroke-linecap="butt" stroke-linejoin="round" stroke="rgb(92.156863%, 92.156863%, 92.156863%)" stroke-opacity="1" stroke-miterlimit="10" d="M 117.195312 240.871094 L 117.195312 32.722656 "/>
</g>
<g clip-path="url(#clip-15)">
<path fill="none" stroke-width="1.551969" stroke-linecap="butt" stroke-linejoin="round" stroke="rgb(92.156863%, 92.156863%, 92.156863%)" stroke-opacity="1" stroke-miterlimit="10" d="M 167.289062 240.871094 L 167.289062 32.722656 "/>
</g>
<g clip-path="url(#clip-16)">
<path fill="none" stroke-width="1.551969" stroke-linecap="butt" stroke-linejoin="round" stroke="rgb(92.156863%, 92.156863%, 92.156863%)" stroke-opacity="1" stroke-miterlimit="10" d="M 217.378906 240.871094 L 217.378906 32.722656 "/>
</g>
<g clip-path="url(#clip-17)">
<path fill="none" stroke-width="1.551969" stroke-linecap="butt" stroke-linejoin="round" stroke="rgb(92.156863%, 92.156863%, 92.156863%)" stroke-opacity="1" stroke-miterlimit="10" d="M 267.472656 240.871094 L 267.472656 32.722656 "/>
</g>
<path fill-rule="nonzero" fill="rgb(90.196078%, 62.352941%, 0%)" fill-opacity="1" d="M 62.597656 231.410156 L 71.613281 231.410156 L 71.613281 42.183594 L 62.597656 42.183594 Z M 62.597656 231.410156 "/>
<path fill-rule="nonzero" fill="rgb(90.196078%, 62.352941%, 0%)" fill-opacity="1" d="M 72.617188 231.410156 L 81.632812 231.410156 L 81.632812 42.183594 L 72.617188 42.183594 Z M 72.617188 231.410156 "/>
<path fill-rule="nonzero" fill="rgb(90.196078%, 62.352941%, 0%)" fill-opacity="1" d="M 82.632812 231.410156 L 91.648438 231.410156 L 91.648438 136.796875 L 82.632812 136.796875 Z M 82.632812 231.410156 "/>
<path fill-rule="nonzero" fill="rgb(90.196078%, 62.352941%, 0%)" fill-opacity="1" d="M 92.652344 231.410156 L 101.667969 231.410156 L 101.667969 199.871094 L 92.652344 199.871094 Z M 92.652344 231.410156 "/>
<path fill-rule="nonzero" fill="rgb(90.196078%, 62.352941%, 0%)" fill-opacity="1" d="M 102.671875 231.410156 L 111.6875 231.410156 L 111.6875 223.527344 L 102.671875 223.527344 Z M 102.671875 231.410156 "/>
<path fill-rule="nonzero" fill="rgb(90.196078%, 62.352941%, 0%)" fill-opacity="1" d="M 112.6875 231.410156 L 121.703125 231.410156 L 121.703125 229.832031 L 112.6875 229.832031 Z M 112.6875 231.410156 "/>
<path fill-rule="nonzero" fill="rgb(90.196078%, 62.352941%, 0%)" fill-opacity="1" d="M 122.707031 231.410156 L 131.722656 231.410156 L 131.722656 231.148438 L 122.707031 231.148438 Z M 122.707031 231.410156 "/>
<path fill-rule="nonzero" fill="rgb(90.196078%, 62.352941%, 0%)" fill-opacity="1" d="M 132.726562 231.410156 L 141.742188 231.410156 L 141.742188 231.371094 L 132.726562 231.371094 Z M 132.726562 231.410156 "/>
<path fill-rule="nonzero" fill="rgb(90.196078%, 62.352941%, 0%)" fill-opacity="1" d="M 142.742188 231.410156 L 151.757812 231.410156 L 151.757812 231.40625 L 142.742188 231.40625 Z M 142.742188 231.410156 "/>
<g clip-path="url(#clip-18)">
<path fill="none" stroke-width="1.551969" stroke-linecap="round" stroke-linejoin="round" stroke="rgb(20%, 20%, 20%)" stroke-opacity="1" stroke-miterlimit="10" d="M 52.128906 240.871094 L 282.449219 240.871094 L 282.449219 32.722656 L 52.128906 32.722656 Z M 52.128906 240.871094 "/>
</g>
<g clip-path="url(#clip-19)">
<path fill-rule="nonzero" fill="rgb(100%, 100%, 100%)" fill-opacity="1" d="M 290.417969 240.871094 L 520.738281 240.871094 L 520.738281 32.722656 L 290.417969 32.722656 Z M 290.417969 240.871094 "/>
</g>
<g clip-path="url(#clip-20)">
<path fill="none" stroke-width="0.775984" stroke-linecap="butt" stroke-linejoin="round" stroke="rgb(92.156863%, 92.156863%, 92.156863%)" stroke-opacity="1" stroke-miterlimit="10" d="M 290.417969 205.691406 L 520.738281 205.691406 "/>
</g>
<g clip-path="url(#clip-21)">
<path fill="none" stroke-width="0.775984" stroke-linecap="butt" stroke-linejoin="round" stroke="rgb(92.156863%, 92.156863%, 92.156863%)" stroke-opacity="1" stroke-miterlimit="10" d="M 290.417969 154.253906 L 520.738281 154.253906 "/>
</g>
<g clip-path="url(#clip-22)">
<path fill="none" stroke-width="0.775984" stroke-linecap="butt" stroke-linejoin="round" stroke="rgb(92.156863%, 92.156863%, 92.156863%)" stroke-opacity="1" stroke-miterlimit="10" d="M 290.417969 102.816406 L 520.738281 102.816406 "/>
</g>
<g clip-path="url(#clip-23)">
<path fill="none" stroke-width="0.775984" stroke-linecap="butt" stroke-linejoin="round" stroke="rgb(92.156863%, 92.156863%, 92.156863%)" stroke-opacity="1" stroke-miterlimit="10" d="M 290.417969 51.378906 L 520.738281 51.378906 "/>
</g>
<g clip-path="url(#clip-24)">
<path fill="none" stroke-width="0.775984" stroke-linecap="butt" stroke-linejoin="round" stroke="rgb(92.156863%, 92.156863%, 92.156863%)" stroke-opacity="1" stroke-miterlimit="10" d="M 330.441406 240.871094 L 330.441406 32.722656 "/>
</g>
<g clip-path="url(#clip-25)">
<path fill="none" stroke-width="0.775984" stroke-linecap="butt" stroke-linejoin="round" stroke="rgb(92.156863%, 92.156863%, 92.156863%)" stroke-opacity="1" stroke-miterlimit="10" d="M 380.535156 240.871094 L 380.535156 32.722656 "/>
</g>
<g clip-path="url(#clip-26)">
<path fill="none" stroke-width="0.775984" stroke-linecap="butt" stroke-linejoin="round" stroke="rgb(92.156863%, 92.156863%, 92.156863%)" stroke-opacity="1" stroke-miterlimit="10" d="M 430.625 240.871094 L 430.625 32.722656 "/>
</g>
<g clip-path="url(#clip-27)">
<path fill="none" stroke-width="0.775984" stroke-linecap="butt" stroke-linejoin="round" stroke="rgb(92.156863%, 92.156863%, 92.156863%)" stroke-opacity="1" stroke-miterlimit="10" d="M 480.714844 240.871094 L 480.714844 32.722656 "/>
</g>
<g clip-path="url(#clip-28)">
<path fill="none" stroke-width="1.551969" stroke-linecap="butt" stroke-linejoin="round" stroke="rgb(92.156863%, 92.156863%, 92.156863%)" stroke-opacity="1" stroke-miterlimit="10" d="M 290.417969 231.410156 L 520.738281 231.410156 "/>
</g>
<g clip-path="url(#clip-29)">
<path fill="none" stroke-width="1.551969" stroke-linecap="butt" stroke-linejoin="round" stroke="rgb(92.156863%, 92.156863%, 92.156863%)" stroke-opacity="1" stroke-miterlimit="10" d="M 290.417969 179.972656 L 520.738281 179.972656 "/>
</g>
<g clip-path="url(#clip-30)">
<path fill="none" stroke-width="1.551969" stroke-linecap="butt" stroke-linejoin="round" stroke="rgb(92.156863%, 92.156863%, 92.156863%)" stroke-opacity="1" stroke-miterlimit="10" d="M 290.417969 128.535156 L 520.738281 128.535156 "/>
</g>
<g clip-path="url(#clip-31)">
<path fill="none" stroke-width="1.551969" stroke-linecap="butt" stroke-linejoin="round" stroke="rgb(92.156863%, 92.156863%, 92.156863%)" stroke-opacity="1" stroke-miterlimit="10" d="M 290.417969 77.097656 L 520.738281 77.097656 "/>
</g>
<g clip-path="url(#clip-32)">
<path fill="none" stroke-width="1.551969" stroke-linecap="butt" stroke-linejoin="round" stroke="rgb(92.156863%, 92.156863%, 92.156863%)" stroke-opacity="1" stroke-miterlimit="10" d="M 305.394531 240.871094 L 305.394531 32.722656 "/>
</g>
<g clip-path="url(#clip-33)">
<path fill="none" stroke-width="1.551969" stroke-linecap="butt" stroke-linejoin="round" stroke="rgb(92.156863%, 92.156863%, 92.156863%)" stroke-opacity="1" stroke-miterlimit="10" d="M 355.488281 240.871094 L 355.488281 32.722656 "/>
</g>
<g clip-path="url(#clip-34)">
<path fill="none" stroke-width="1.551969" stroke-linecap="butt" stroke-linejoin="round" stroke="rgb(92.156863%, 92.156863%, 92.156863%)" stroke-opacity="1" stroke-miterlimit="10" d="M 405.578125 240.871094 L 405.578125 32.722656 "/>
</g>
<g clip-path="url(#clip-35)">
<path fill="none" stroke-width="1.551969" stroke-linecap="butt" stroke-linejoin="round" stroke="rgb(92.156863%, 92.156863%, 92.156863%)" stroke-opacity="1" stroke-miterlimit="10" d="M 455.671875 240.871094 L 455.671875 32.722656 "/>
</g>
<g clip-path="url(#clip-36)">
<path fill="none" stroke-width="1.551969" stroke-linecap="butt" stroke-linejoin="round" stroke="rgb(92.156863%, 92.156863%, 92.156863%)" stroke-opacity="1" stroke-miterlimit="10" d="M 505.761719 240.871094 L 505.761719 32.722656 "/>
</g>
<path fill-rule="nonzero" fill="rgb(33.72549%, 70.588235%, 91.372549%)" fill-opacity="1" d="M 300.886719 231.410156 L 309.902344 231.410156 L 309.902344 221.988281 L 300.886719 221.988281 Z M 300.886719 231.410156 "/>
<path fill-rule="nonzero" fill="rgb(33.72549%, 70.588235%, 91.372549%)" fill-opacity="1" d="M 310.90625 231.410156 L 319.921875 231.410156 L 319.921875 193.726562 L 310.90625 193.726562 Z M 310.90625 231.410156 "/>
<path fill-rule="nonzero" fill="rgb(33.72549%, 70.588235%, 91.372549%)" fill-opacity="1" d="M 320.925781 231.410156 L 329.941406 231.410156 L 329.941406 156.042969 L 320.925781 156.042969 Z M 320.925781 231.410156 "/>
<path fill-rule="nonzero" fill="rgb(33.72549%, 70.588235%, 91.372549%)" fill-opacity="1" d="M 330.941406 231.410156 L 339.957031 231.410156 L 339.957031 130.917969 L 330.941406 130.917969 Z M 330.941406 231.410156 "/>
<path fill-rule="nonzero" fill="rgb(33.72549%, 70.588235%, 91.372549%)" fill-opacity="1" d="M 340.960938 231.410156 L 349.976562 231.410156 L 349.976562 130.917969 L 340.960938 130.917969 Z M 340.960938 231.410156 "/>
<path fill-rule="nonzero" fill="rgb(33.72549%, 70.588235%, 91.372549%)" fill-opacity="1" d="M 350.980469 231.410156 L 359.996094 231.410156 L 359.996094 151.015625 L 350.980469 151.015625 Z M 350.980469 231.410156 "/>
<path fill-rule="nonzero" fill="rgb(33.72549%, 70.588235%, 91.372549%)" fill-opacity="1" d="M 360.996094 231.410156 L 370.011719 231.410156 L 370.011719 177.816406 L 360.996094 177.816406 Z M 360.996094 231.410156 "/>
<path fill-rule="nonzero" fill="rgb(33.72549%, 70.588235%, 91.372549%)" fill-opacity="1" d="M 371.015625 231.410156 L 380.03125 231.410156 L 380.03125 200.785156 L 371.015625 200.785156 Z M 371.015625 231.410156 "/>
<path fill-rule="nonzero" fill="rgb(33.72549%, 70.588235%, 91.372549%)" fill-opacity="1" d="M 381.035156 231.410156 L 390.050781 231.410156 L 390.050781 216.097656 L 381.035156 216.097656 Z M 381.035156 231.410156 "/>
<path fill-rule="nonzero" fill="rgb(33.72549%, 70.588235%, 91.372549%)" fill-opacity="1" d="M 391.050781 231.410156 L 400.066406 231.410156 L 400.066406 224.605469 L 391.050781 224.605469 Z M 391.050781 231.410156 "/>
<path fill-rule="nonzero" fill="rgb(33.72549%, 70.588235%, 91.372549%)" fill-opacity="1" d="M 401.070312 231.410156 L 410.085938 231.410156 L 410.085938 228.6875 L 401.070312 228.6875 Z M 401.070312 231.410156 "/>
<path fill-rule="nonzero" fill="rgb(33.72549%, 70.588235%, 91.372549%)" fill-opacity="1" d="M 411.089844 231.410156 L 420.105469 231.410156 L 420.105469 230.421875 L 411.089844 230.421875 Z M 411.089844 231.410156 "/>
<path fill-rule="nonzero" fill="rgb(33.72549%, 70.588235%, 91.372549%)" fill-opacity="1" d="M 421.109375 231.410156 L 430.125 231.410156 L 430.125 231.082031 L 421.109375 231.082031 Z M 421.109375 231.410156 "/>
<path fill-rule="nonzero" fill="rgb(33.72549%, 70.588235%, 91.372549%)" fill-opacity="1" d="M 431.125 231.410156 L 440.140625 231.410156 L 440.140625 231.308594 L 431.125 231.308594 Z M 431.125 231.410156 "/>
<path fill-rule="nonzero" fill="rgb(33.72549%, 70.588235%, 91.372549%)" fill-opacity="1" d="M 441.144531 231.410156 L 450.160156 231.410156 L 450.160156 231.382812 L 441.144531 231.382812 Z M 441.144531 231.410156 "/>
<path fill-rule="nonzero" fill="rgb(33.72549%, 70.588235%, 91.372549%)" fill-opacity="1" d="M 451.164062 231.410156 L 460.179688 231.410156 L 460.179688 231.402344 L 451.164062 231.402344 Z M 451.164062 231.410156 "/>
<g clip-path="url(#clip-37)">
<path fill="none" stroke-width="1.551969" stroke-linecap="round" stroke-linejoin="round" stroke="rgb(20%, 20%, 20%)" stroke-opacity="1" stroke-miterlimit="10" d="M 290.417969 240.871094 L 520.738281 240.871094 L 520.738281 32.722656 L 290.417969 32.722656 Z M 290.417969 240.871094 "/>
</g>
<g clip-path="url(#clip-38)">
<path fill-rule="nonzero" fill="rgb(100%, 100%, 100%)" fill-opacity="1" d="M 528.710938 240.871094 L 759.03125 240.871094 L 759.03125 32.722656 L 528.710938 32.722656 Z M 528.710938 240.871094 "/>
</g>
<g clip-path="url(#clip-39)">
<path fill="none" stroke-width="0.775984" stroke-linecap="butt" stroke-linejoin="round" stroke="rgb(92.156863%, 92.156863%, 92.156863%)" stroke-opacity="1" stroke-miterlimit="10" d="M 528.710938 205.691406 L 759.03125 205.691406 "/>
</g>
<g clip-path="url(#clip-40)">
<path fill="none" stroke-width="0.775984" stroke-linecap="butt" stroke-linejoin="round" stroke="rgb(92.156863%, 92.156863%, 92.156863%)" stroke-opacity="1" stroke-miterlimit="10" d="M 528.710938 154.253906 L 759.03125 154.253906 "/>
</g>
<g clip-path="url(#clip-41)">
<path fill="none" stroke-width="0.775984" stroke-linecap="butt" stroke-linejoin="round" stroke="rgb(92.156863%, 92.156863%, 92.156863%)" stroke-opacity="1" stroke-miterlimit="10" d="M 528.710938 102.816406 L 759.03125 102.816406 "/>
</g>
<g clip-path="url(#clip-42)">
<path fill="none" stroke-width="0.775984" stroke-linecap="butt" stroke-linejoin="round" stroke="rgb(92.156863%, 92.156863%, 92.156863%)" stroke-opacity="1" stroke-miterlimit="10" d="M 528.710938 51.378906 L 759.03125 51.378906 "/>
</g>
<g clip-path="url(#clip-43)">
<path fill="none" stroke-width="0.775984" stroke-linecap="butt" stroke-linejoin="round" stroke="rgb(92.156863%, 92.156863%, 92.156863%)" stroke-opacity="1" stroke-miterlimit="10" d="M 568.734375 240.871094 L 568.734375 32.722656 "/>
</g>
<g clip-path="url(#clip-44)">
<path fill="none" stroke-width="0.775984" stroke-linecap="butt" stroke-linejoin="round" stroke="rgb(92.156863%, 92.156863%, 92.156863%)" stroke-opacity="1" stroke-miterlimit="10" d="M 618.824219 240.871094 L 618.824219 32.722656 "/>
</g>
<g clip-path="url(#clip-45)">
<path fill="none" stroke-width="0.775984" stroke-linecap="butt" stroke-linejoin="round" stroke="rgb(92.156863%, 92.156863%, 92.156863%)" stroke-opacity="1" stroke-miterlimit="10" d="M 668.914062 240.871094 L 668.914062 32.722656 "/>
</g>
<g clip-path="url(#clip-46)">
<path fill="none" stroke-width="0.775984" stroke-linecap="butt" stroke-linejoin="round" stroke="rgb(92.156863%, 92.156863%, 92.156863%)" stroke-opacity="1" stroke-miterlimit="10" d="M 719.007812 240.871094 L 719.007812 32.722656 "/>
</g>
<g clip-path="url(#clip-47)">
<path fill="none" stroke-width="1.551969" stroke-linecap="butt" stroke-linejoin="round" stroke="rgb(92.156863%, 92.156863%, 92.156863%)" stroke-opacity="1" stroke-miterlimit="10" d="M 528.710938 231.410156 L 759.03125 231.410156 "/>
</g>
<g clip-path="url(#clip-48)">
<path fill="none" stroke-width="1.551969" stroke-linecap="butt" stroke-linejoin="round" stroke="rgb(92.156863%, 92.156863%, 92.156863%)" stroke-opacity="1" stroke-miterlimit="10" d="M 528.710938 179.972656 L 759.03125 179.972656 "/>
</g>
<g clip-path="url(#clip-49)">
<path fill="none" stroke-width="1.551969" stroke-linecap="butt" stroke-linejoin="round" stroke="rgb(92.156863%, 92.156863%, 92.156863%)" stroke-opacity="1" stroke-miterlimit="10" d="M 528.710938 128.535156 L 759.03125 128.535156 "/>
</g>
<g clip-path="url(#clip-50)">
<path fill="none" stroke-width="1.551969" stroke-linecap="butt" stroke-linejoin="round" stroke="rgb(92.156863%, 92.156863%, 92.156863%)" stroke-opacity="1" stroke-miterlimit="10" d="M 528.710938 77.097656 L 759.03125 77.097656 "/>
</g>
<g clip-path="url(#clip-51)">
<path fill="none" stroke-width="1.551969" stroke-linecap="butt" stroke-linejoin="round" stroke="rgb(92.156863%, 92.156863%, 92.156863%)" stroke-opacity="1" stroke-miterlimit="10" d="M 543.6875 240.871094 L 543.6875 32.722656 "/>
</g>
<g clip-path="url(#clip-52)">
<path fill="none" stroke-width="1.551969" stroke-linecap="butt" stroke-linejoin="round" stroke="rgb(92.156863%, 92.156863%, 92.156863%)" stroke-opacity="1" stroke-miterlimit="10" d="M 593.777344 240.871094 L 593.777344 32.722656 "/>
</g>
<g clip-path="url(#clip-53)">
<path fill="none" stroke-width="1.551969" stroke-linecap="butt" stroke-linejoin="round" stroke="rgb(92.156863%, 92.156863%, 92.156863%)" stroke-opacity="1" stroke-miterlimit="10" d="M 643.871094 240.871094 L 643.871094 32.722656 "/>
</g>
<g clip-path="url(#clip-54)">
<path fill="none" stroke-width="1.551969" stroke-linecap="butt" stroke-linejoin="round" stroke="rgb(92.156863%, 92.156863%, 92.156863%)" stroke-opacity="1" stroke-miterlimit="10" d="M 693.960938 240.871094 L 693.960938 32.722656 "/>
</g>
<g clip-path="url(#clip-55)">
<path fill="none" stroke-width="1.551969" stroke-linecap="butt" stroke-linejoin="round" stroke="rgb(92.156863%, 92.156863%, 92.156863%)" stroke-opacity="1" stroke-miterlimit="10" d="M 744.050781 240.871094 L 744.050781 32.722656 "/>
</g>
<path fill-rule="nonzero" fill="rgb(0%, 61.960784%, 45.098039%)" fill-opacity="1" d="M 539.179688 231.410156 L 548.195312 231.410156 L 548.195312 231.386719 L 539.179688 231.386719 Z M 539.179688 231.410156 "/>
<path fill-rule="nonzero" fill="rgb(0%, 61.960784%, 45.098039%)" fill-opacity="1" d="M 549.195312 231.410156 L 558.210938 231.410156 L 558.210938 231.175781 L 549.195312 231.175781 Z M 549.195312 231.410156 "/>
<path fill-rule="nonzero" fill="rgb(0%, 61.960784%, 45.098039%)" fill-opacity="1" d="M 559.214844 231.410156 L 568.230469 231.410156 L 568.230469 230.242188 L 559.214844 230.242188 Z M 559.214844 231.410156 "/>
<path fill-rule="nonzero" fill="rgb(0%, 61.960784%, 45.098039%)" fill-opacity="1" d="M 569.234375 231.410156 L 578.25 231.410156 L 578.25 227.519531 L 569.234375 227.519531 Z M 569.234375 231.410156 "/>
<path fill-rule="nonzero" fill="rgb(0%, 61.960784%, 45.098039%)" fill-opacity="1" d="M 579.25 231.410156 L 588.265625 231.410156 L 588.265625 221.679688 L 579.25 221.679688 Z M 579.25 231.410156 "/>
<path fill-rule="nonzero" fill="rgb(0%, 61.960784%, 45.098039%)" fill-opacity="1" d="M 589.269531 231.410156 L 598.285156 231.410156 L 598.285156 211.949219 L 589.269531 211.949219 Z M 589.269531 231.410156 "/>
<path fill-rule="nonzero" fill="rgb(0%, 61.960784%, 45.098039%)" fill-opacity="1" d="M 599.289062 231.410156 L 608.304688 231.410156 L 608.304688 198.976562 L 599.289062 198.976562 Z M 599.289062 231.410156 "/>
<path fill-rule="nonzero" fill="rgb(0%, 61.960784%, 45.098039%)" fill-opacity="1" d="M 609.304688 231.410156 L 618.320312 231.410156 L 618.320312 185.074219 L 609.304688 185.074219 Z M 609.304688 231.410156 "/>
<path fill-rule="nonzero" fill="rgb(0%, 61.960784%, 45.098039%)" fill-opacity="1" d="M 619.324219 231.410156 L 628.339844 231.410156 L 628.339844 173.492188 L 619.324219 173.492188 Z M 619.324219 231.410156 "/>
<path fill-rule="nonzero" fill="rgb(0%, 61.960784%, 45.098039%)" fill-opacity="1" d="M 629.34375 231.410156 L 638.359375 231.410156 L 638.359375 167.058594 L 629.34375 167.058594 Z M 629.34375 231.410156 "/>
<path fill-rule="nonzero" fill="rgb(0%, 61.960784%, 45.098039%)" fill-opacity="1" d="M 639.363281 231.410156 L 648.378906 231.410156 L 648.378906 167.058594 L 639.363281 167.058594 Z M 639.363281 231.410156 "/>
<path fill-rule="nonzero" fill="rgb(0%, 61.960784%, 45.098039%)" fill-opacity="1" d="M 649.378906 231.410156 L 658.394531 231.410156 L 658.394531 172.90625 L 649.378906 172.90625 Z M 649.378906 231.410156 "/>
<path fill-rule="nonzero" fill="rgb(0%, 61.960784%, 45.098039%)" fill-opacity="1" d="M 659.398438 231.410156 L 668.414062 231.410156 L 668.414062 182.65625 L 659.398438 182.65625 Z M 659.398438 231.410156 "/>
<path fill-rule="nonzero" fill="rgb(0%, 61.960784%, 45.098039%)" fill-opacity="1" d="M 669.417969 231.410156 L 678.433594 231.410156 L 678.433594 193.910156 L 669.417969 193.910156 Z M 669.417969 231.410156 "/>
<path fill-rule="nonzero" fill="rgb(0%, 61.960784%, 45.098039%)" fill-opacity="1" d="M 679.433594 231.410156 L 688.449219 231.410156 L 688.449219 204.625 L 679.433594 204.625 Z M 679.433594 231.410156 "/>
<path fill-rule="nonzero" fill="rgb(0%, 61.960784%, 45.098039%)" fill-opacity="1" d="M 689.453125 231.410156 L 698.46875 231.410156 L 698.46875 213.550781 L 689.453125 213.550781 Z M 689.453125 231.410156 "/>
<path fill-rule="nonzero" fill="rgb(0%, 61.960784%, 45.098039%)" fill-opacity="1" d="M 699.472656 231.410156 L 708.488281 231.410156 L 708.488281 220.25 L 699.472656 220.25 Z M 699.472656 231.410156 "/>
<path fill-rule="nonzero" fill="rgb(0%, 61.960784%, 45.098039%)" fill-opacity="1" d="M 709.488281 231.410156 L 718.503906 231.410156 L 718.503906 224.84375 L 709.488281 224.84375 Z M 709.488281 231.410156 "/>
<path fill-rule="nonzero" fill="rgb(0%, 61.960784%, 45.098039%)" fill-opacity="1" d="M 719.507812 231.410156 L 728.523438 231.410156 L 728.523438 227.761719 L 719.507812 227.761719 Z M 719.507812 231.410156 "/>
<path fill-rule="nonzero" fill="rgb(0%, 61.960784%, 45.098039%)" fill-opacity="1" d="M 729.527344 231.410156 L 738.542969 231.410156 L 738.542969 229.492188 L 729.527344 229.492188 Z M 729.527344 231.410156 "/>
<path fill-rule="nonzero" fill="rgb(0%, 61.960784%, 45.098039%)" fill-opacity="1" d="M 739.542969 231.410156 L 748.558594 231.410156 L 748.558594 230.449219 L 739.542969 230.449219 Z M 739.542969 231.410156 "/>
<g clip-path="url(#clip-56)">
<path fill="none" stroke-width="1.551969" stroke-linecap="round" stroke-linejoin="round" stroke="rgb(20%, 20%, 20%)" stroke-opacity="1" stroke-miterlimit="10" d="M 528.710938 240.871094 L 759.03125 240.871094 L 759.03125 32.722656 L 528.710938 32.722656 Z M 528.710938 240.871094 "/>
</g>
<g clip-path="url(#clip-57)">
<path fill-rule="nonzero" fill="rgb(85.098039%, 85.098039%, 85.098039%)" fill-opacity="1" stroke-width="1.551969" stroke-linecap="round" stroke-linejoin="round" stroke="rgb(20%, 20%, 20%)" stroke-opacity="1" stroke-miterlimit="10" d="M 52.128906 32.722656 L 282.449219 32.722656 L 282.449219 7.96875 L 52.128906 7.96875 Z M 52.128906 32.722656 "/>
</g>
<g fill="rgb(10.196078%, 10.196078%, 10.196078%)" fill-opacity="1">
<use xlink:href="#glyph-0-1" x="138.789062" y="24.81543"/>
<use xlink:href="#glyph-0-2" x="142.789062" y="24.81543"/>
<use xlink:href="#glyph-0-3" x="149.789062" y="24.81543"/>
<use xlink:href="#glyph-0-4" x="160.789062" y="24.81543"/>
<use xlink:href="#glyph-0-5" x="168.789062" y="24.81543"/>
<use xlink:href="#glyph-0-2" x="176.789062" y="24.81543"/>
<use xlink:href="#glyph-0-6" x="183.789062" y="24.81543"/>
<use xlink:href="#glyph-0-7" x="189.789062" y="24.81543"/>
</g>
<g clip-path="url(#clip-58)">
<path fill-rule="nonzero" fill="rgb(85.098039%, 85.098039%, 85.098039%)" fill-opacity="1" stroke-width="1.551969" stroke-linecap="round" stroke-linejoin="round" stroke="rgb(20%, 20%, 20%)" stroke-opacity="1" stroke-miterlimit="10" d="M 290.417969 32.722656 L 520.738281 32.722656 L 520.738281 7.96875 L 290.417969 7.96875 Z M 290.417969 32.722656 "/>
</g>
<g fill="rgb(10.196078%, 10.196078%, 10.196078%)" fill-opacity="1">
<use xlink:href="#glyph-0-1" x="376.578125" y="24.81543"/>
<use xlink:href="#glyph-0-2" x="380.578125" y="24.81543"/>
<use xlink:href="#glyph-0-3" x="387.578125" y="24.81543"/>
<use xlink:href="#glyph-0-4" x="398.578125" y="24.81543"/>
<use xlink:href="#glyph-0-5" x="406.578125" y="24.81543"/>
<use xlink:href="#glyph-0-2" x="414.578125" y="24.81543"/>
<use xlink:href="#glyph-0-6" x="421.578125" y="24.81543"/>
<use xlink:href="#glyph-0-8" x="427.578125" y="24.81543"/>
</g>
<g clip-path="url(#clip-59)">
<path fill-rule="nonzero" fill="rgb(85.098039%, 85.098039%, 85.098039%)" fill-opacity="1" stroke-width="1.551969" stroke-linecap="round" stroke-linejoin="round" stroke="rgb(20%, 20%, 20%)" stroke-opacity="1" stroke-miterlimit="10" d="M 528.710938 32.722656 L 759.03125 32.722656 L 759.03125 7.96875 L 528.710938 7.96875 Z M 528.710938 32.722656 "/>
</g>
<g fill="rgb(10.196078%, 10.196078%, 10.196078%)" fill-opacity="1">
<use xlink:href="#glyph-0-1" x="611.871094" y="24.81543"/>
<use xlink:href="#glyph-0-2" x="615.871094" y="24.81543"/>
<use xlink:href="#glyph-0-3" x="622.871094" y="24.81543"/>
<use xlink:href="#glyph-0-4" x="633.871094" y="24.81543"/>
<use xlink:href="#glyph-0-5" x="641.871094" y="24.81543"/>
<use xlink:href="#glyph-0-2" x="649.871094" y="24.81543"/>
<use xlink:href="#glyph-0-6" x="656.871094" y="24.81543"/>
<use xlink:href="#glyph-0-7" x="662.871094" y="24.81543"/>
<use xlink:href="#glyph-0-9" x="668.871094" y="24.81543"/>
</g>
<path fill="none" stroke-width="1.551969" stroke-linecap="butt" stroke-linejoin="round" stroke="rgb(20%, 20%, 20%)" stroke-opacity="1" stroke-miterlimit="10" d="M 67.105469 244.855469 L 67.105469 240.871094 "/>
<path fill="none" stroke-width="1.551969" stroke-linecap="butt" stroke-linejoin="round" stroke="rgb(20%, 20%, 20%)" stroke-opacity="1" stroke-miterlimit="10" d="M 117.195312 244.855469 L 117.195312 240.871094 "/>
<path fill="none" stroke-width="1.551969" stroke-linecap="butt" stroke-linejoin="round" stroke="rgb(20%, 20%, 20%)" stroke-opacity="1" stroke-miterlimit="10" d="M 167.289062 244.855469 L 167.289062 240.871094 "/>
<path fill="none" stroke-width="1.551969" stroke-linecap="butt" stroke-linejoin="round" stroke="rgb(20%, 20%, 20%)" stroke-opacity="1" stroke-miterlimit="10" d="M 217.378906 244.855469 L 217.378906 240.871094 "/>
<path fill="none" stroke-width="1.551969" stroke-linecap="butt" stroke-linejoin="round" stroke="rgb(20%, 20%, 20%)" stroke-opacity="1" stroke-miterlimit="10" d="M 267.472656 244.855469 L 267.472656 240.871094 "/>
<g fill="rgb(30.196078%, 30.196078%, 30.196078%)" fill-opacity="1">
<use xlink:href="#glyph-0-9" x="63.605469" y="257.010742"/>
</g>
<g fill="rgb(30.196078%, 30.196078%, 30.196078%)" fill-opacity="1">
<use xlink:href="#glyph-0-10" x="114.195312" y="257.010742"/>
</g>
<g fill="rgb(30.196078%, 30.196078%, 30.196078%)" fill-opacity="1">
<use xlink:href="#glyph-0-7" x="160.789062" y="257.010742"/>
<use xlink:href="#glyph-0-9" x="166.789062" y="257.010742"/>
</g>
<g fill="rgb(30.196078%, 30.196078%, 30.196078%)" fill-opacity="1">
<use xlink:href="#glyph-0-7" x="211.378906" y="257.010742"/>
<use xlink:href="#glyph-0-10" x="217.378906" y="257.010742"/>
</g>
<g fill="rgb(30.196078%, 30.196078%, 30.196078%)" fill-opacity="1">
<use xlink:href="#glyph-0-11" x="260.972656" y="257.010742"/>
<use xlink:href="#glyph-0-9" x="266.972656" y="257.010742"/>
</g>
<path fill="none" stroke-width="1.551969" stroke-linecap="butt" stroke-linejoin="round" stroke="rgb(20%, 20%, 20%)" stroke-opacity="1" stroke-miterlimit="10" d="M 305.394531 244.855469 L 305.394531 240.871094 "/>
<path fill="none" stroke-width="1.551969" stroke-linecap="butt" stroke-linejoin="round" stroke="rgb(20%, 20%, 20%)" stroke-opacity="1" stroke-miterlimit="10" d="M 355.488281 244.855469 L 355.488281 240.871094 "/>
<path fill="none" stroke-width="1.551969" stroke-linecap="butt" stroke-linejoin="round" stroke="rgb(20%, 20%, 20%)" stroke-opacity="1" stroke-miterlimit="10" d="M 405.578125 244.855469 L 405.578125 240.871094 "/>
<path fill="none" stroke-width="1.551969" stroke-linecap="butt" stroke-linejoin="round" stroke="rgb(20%, 20%, 20%)" stroke-opacity="1" stroke-miterlimit="10" d="M 455.671875 244.855469 L 455.671875 240.871094 "/>
<path fill="none" stroke-width="1.551969" stroke-linecap="butt" stroke-linejoin="round" stroke="rgb(20%, 20%, 20%)" stroke-opacity="1" stroke-miterlimit="10" d="M 505.761719 244.855469 L 505.761719 240.871094 "/>
<g fill="rgb(30.196078%, 30.196078%, 30.196078%)" fill-opacity="1">
<use xlink:href="#glyph-0-9" x="301.894531" y="257.010742"/>
</g>
<g fill="rgb(30.196078%, 30.196078%, 30.196078%)" fill-opacity="1">
<use xlink:href="#glyph-0-10" x="352.488281" y="257.010742"/>
</g>
<g fill="rgb(30.196078%, 30.196078%, 30.196078%)" fill-opacity="1">
<use xlink:href="#glyph-0-7" x="399.078125" y="257.010742"/>
<use xlink:href="#glyph-0-9" x="405.078125" y="257.010742"/>
</g>
<g fill="rgb(30.196078%, 30.196078%, 30.196078%)" fill-opacity="1">
<use xlink:href="#glyph-0-7" x="449.671875" y="257.010742"/>
<use xlink:href="#glyph-0-10" x="455.671875" y="257.010742"/>
</g>
<g fill="rgb(30.196078%, 30.196078%, 30.196078%)" fill-opacity="1">
<use xlink:href="#glyph-0-11" x="499.261719" y="257.010742"/>
<use xlink:href="#glyph-0-9" x="505.261719" y="257.010742"/>
</g>
<path fill="none" stroke-width="1.551969" stroke-linecap="butt" stroke-linejoin="round" stroke="rgb(20%, 20%, 20%)" stroke-opacity="1" stroke-miterlimit="10" d="M 543.6875 244.855469 L 543.6875 240.871094 "/>
<path fill="none" stroke-width="1.551969" stroke-linecap="butt" stroke-linejoin="round" stroke="rgb(20%, 20%, 20%)" stroke-opacity="1" stroke-miterlimit="10" d="M 593.777344 244.855469 L 593.777344 240.871094 "/>
<path fill="none" stroke-width="1.551969" stroke-linecap="butt" stroke-linejoin="round" stroke="rgb(20%, 20%, 20%)" stroke-opacity="1" stroke-miterlimit="10" d="M 643.871094 244.855469 L 643.871094 240.871094 "/>
<path fill="none" stroke-width="1.551969" stroke-linecap="butt" stroke-linejoin="round" stroke="rgb(20%, 20%, 20%)" stroke-opacity="1" stroke-miterlimit="10" d="M 693.960938 244.855469 L 693.960938 240.871094 "/>
<path fill="none" stroke-width="1.551969" stroke-linecap="butt" stroke-linejoin="round" stroke="rgb(20%, 20%, 20%)" stroke-opacity="1" stroke-miterlimit="10" d="M 744.050781 244.855469 L 744.050781 240.871094 "/>
<g fill="rgb(30.196078%, 30.196078%, 30.196078%)" fill-opacity="1">
<use xlink:href="#glyph-0-9" x="540.1875" y="257.010742"/>
</g>
<g fill="rgb(30.196078%, 30.196078%, 30.196078%)" fill-opacity="1">
<use xlink:href="#glyph-0-10" x="590.777344" y="257.010742"/>
</g>
<g fill="rgb(30.196078%, 30.196078%, 30.196078%)" fill-opacity="1">
<use xlink:href="#glyph-0-7" x="637.371094" y="257.010742"/>
<use xlink:href="#glyph-0-9" x="643.371094" y="257.010742"/>
</g>
<g fill="rgb(30.196078%, 30.196078%, 30.196078%)" fill-opacity="1">
<use xlink:href="#glyph-0-7" x="687.960938" y="257.010742"/>
<use xlink:href="#glyph-0-10" x="693.960938" y="257.010742"/>
</g>
<g fill="rgb(30.196078%, 30.196078%, 30.196078%)" fill-opacity="1">
<use xlink:href="#glyph-0-11" x="737.550781" y="257.010742"/>
<use xlink:href="#glyph-0-9" x="743.550781" y="257.010742"/>
</g>
<g fill="rgb(30.196078%, 30.196078%, 30.196078%)" fill-opacity="1">
<use xlink:href="#glyph-0-9" x="27.957031" y="235.87793"/>
<use xlink:href="#glyph-0-12" x="34.957031" y="235.87793"/>
<use xlink:href="#glyph-0-9" x="37.957031" y="235.87793"/>
</g>
<g fill="rgb(30.196078%, 30.196078%, 30.196078%)" fill-opacity="1">
<use xlink:href="#glyph-0-9" x="29.957031" y="184.44043"/>
<use xlink:href="#glyph-0-12" x="36.957031" y="184.44043"/>
<use xlink:href="#glyph-0-7" x="38.957031" y="184.44043"/>
</g>
<g fill="rgb(30.196078%, 30.196078%, 30.196078%)" fill-opacity="1">
<use xlink:href="#glyph-0-9" x="28.957031" y="133.00293"/>
<use xlink:href="#glyph-0-12" x="35.957031" y="133.00293"/>
<use xlink:href="#glyph-0-11" x="38.957031" y="133.00293"/>
</g>
<g fill="rgb(30.196078%, 30.196078%, 30.196078%)" fill-opacity="1">
<use xlink:href="#glyph-0-9" x="28.957031" y="81.56543"/>
<use xlink:href="#glyph-0-12" x="35.957031" y="81.56543"/>
<use xlink:href="#glyph-0-13" x="38.957031" y="81.56543"/>
</g>
<path fill="none" stroke-width="1.551969" stroke-linecap="butt" stroke-linejoin="round" stroke="rgb(20%, 20%, 20%)" stroke-opacity="1" stroke-miterlimit="10" d="M 48.144531 231.410156 L 52.128906 231.410156 "/>
<path fill="none" stroke-width="1.551969" stroke-linecap="butt" stroke-linejoin="round" stroke="rgb(20%, 20%, 20%)" stroke-opacity="1" stroke-miterlimit="10" d="M 48.144531 179.972656 L 52.128906 179.972656 "/>
<path fill="none" stroke-width="1.551969" stroke-linecap="butt" stroke-linejoin="round" stroke="rgb(20%, 20%, 20%)" stroke-opacity="1" stroke-miterlimit="10" d="M 48.144531 128.535156 L 52.128906 128.535156 "/>
<path fill="none" stroke-width="1.551969" stroke-linecap="butt" stroke-linejoin="round" stroke="rgb(20%, 20%, 20%)" stroke-opacity="1" stroke-miterlimit="10" d="M 48.144531 77.097656 L 52.128906 77.097656 "/>
<g fill="rgb(0%, 0%, 0%)" fill-opacity="1">
<use xlink:href="#glyph-1-1" x="384.578125" y="275.991211"/>
<use xlink:href="#glyph-1-2" x="393.578125" y="275.991211"/>
<use xlink:href="#glyph-1-3" x="402.578125" y="275.991211"/>
<use xlink:href="#glyph-1-4" x="411.578125" y="275.991211"/>
<use xlink:href="#glyph-1-5" x="420.578125" y="275.991211"/>
</g>
<g fill="rgb(0%, 0%, 0%)" fill-opacity="1">
<use xlink:href="#glyph-2-1" x="19.928711" y="197.796875"/>
<use xlink:href="#glyph-2-2" x="19.928711" y="188.796875"/>
<use xlink:href="#glyph-2-3" x="19.928711" y="182.796875"/>
<use xlink:href="#glyph-2-4" x="19.928711" y="173.796875"/>
<use xlink:href="#glyph-2-5" x="19.928711" y="163.796875"/>
<use xlink:href="#glyph-2-4" x="19.928711" y="154.796875"/>
<use xlink:href="#glyph-2-6" x="19.928711" y="144.796875"/>
<use xlink:href="#glyph-2-7" x="19.928711" y="139.796875"/>
<use xlink:href="#glyph-2-6" x="19.928711" y="134.796875"/>
<use xlink:href="#glyph-2-8" x="19.928711" y="129.796875"/>
<use xlink:href="#glyph-2-9" x="19.928711" y="123.796875"/>
<use xlink:href="#glyph-2-10" x="19.928711" y="115.796875"/>
<use xlink:href="#glyph-2-11" x="19.928711" y="111.796875"/>
<use xlink:href="#glyph-2-5" x="19.928711" y="98.796875"/>
<use xlink:href="#glyph-2-12" x="19.928711" y="89.796875"/>
<use xlink:href="#glyph-2-12" x="19.928711" y="82.796875"/>
</g>
</svg>
