<?xml version="1.0" encoding="UTF-8"?>
<svg xmlns="http://www.w3.org/2000/svg" xmlns:xlink="http://www.w3.org/1999/xlink" width="767pt" height="432pt" viewBox="0 0 767 432">
<defs>
<g>
<g id="glyph-0-0">
<path d="M 6.953125 -13.4375 L 1.578125 -13.4375 L 1.578125 4.484375 L 6.953125 4.484375 Z M 6.25 -12.765625 L 6.25 3.8125 L 2.28125 3.8125 L 2.28125 -12.765625 Z M 4.140625 -5.765625 C 3.640625 -5.765625 2.953125 -5.625 2.953125 -5.265625 C 2.953125 -5.109375 3.078125 -4.984375 3.265625 -4.984375 C 3.3125 -4.984375 3.359375 -4.984375 3.421875 -5.015625 C 3.640625 -5.125 3.828125 -5.15625 4.09375 -5.15625 C 4.734375 -5.15625 4.875 -4.765625 4.875 -4.28125 C 4.875 -3.59375 4.625 -3.34375 3.71875 -3.28125 L 3.71875 -2.21875 C 3.71875 -2.015625 3.859375 -1.90625 4.03125 -1.90625 C 4.1875 -1.90625 4.34375 -2.015625 4.34375 -2.21875 L 4.34375 -2.796875 C 5.203125 -2.921875 5.5625 -3.40625 5.5625 -4.296875 C 5.5625 -5.0625 5.25 -5.765625 4.140625 -5.765625 Z M 4.03125 -1.53125 C 3.78125 -1.53125 3.578125 -1.34375 3.578125 -1.09375 C 3.578125 -0.8125 3.78125 -0.609375 4.03125 -0.609375 C 4.28125 -0.609375 4.484375 -0.8125 4.484375 -1.09375 C 4.484375 -1.34375 4.28125 -1.53125 4.03125 -1.53125 Z M 4.03125 -1.53125 "/>
</g>
<g id="glyph-0-1">
<path d="M 2.921875 -8.6875 C 1.84375 -8.6875 1.015625 -8.25 0.3125 -7.390625 L 1.109375 -6.78125 C 1.65625 -7.4375 2.140625 -7.71875 2.859375 -7.71875 C 3.6875 -7.71875 4.265625 -7.1875 4.265625 -6.296875 C 4.265625 -4.90625 3.515625 -4.078125 0.5 -0.9375 L 0.5 0 L 5.546875 0 L 5.6875 -0.984375 L 1.84375 -0.984375 C 4.46875 -3.609375 5.484375 -4.75 5.484375 -6.34375 C 5.484375 -7.671875 4.484375 -8.6875 2.921875 -8.6875 Z M 2.921875 -8.6875 "/>
</g>
<g id="glyph-0-2">
<path d="M 1.515625 -1.625 C 1.03125 -1.625 0.640625 -1.234375 0.640625 -0.75 C 0.640625 -0.25 1.03125 0.15625 1.515625 0.15625 C 2.03125 0.15625 2.421875 -0.25 2.421875 -0.75 C 2.421875 -1.234375 2.03125 -1.625 1.515625 -1.625 Z M 1.515625 -1.625 "/>
</g>
<g id="glyph-0-3">
<path d="M 3.578125 -8.6875 C 1.65625 -8.6875 0.703125 -7.109375 0.703125 -4.28125 C 0.703125 -1.4375 1.65625 0.15625 3.578125 0.15625 C 5.484375 0.15625 6.4375 -1.4375 6.4375 -4.28125 C 6.4375 -7.109375 5.484375 -8.6875 3.578125 -8.6875 Z M 3.578125 -7.75 C 4.625 -7.75 5.203125 -6.78125 5.203125 -4.28125 C 5.203125 -1.75 4.625 -0.78125 3.578125 -0.78125 C 2.5 -0.78125 1.9375 -1.75 1.9375 -4.28125 C 1.9375 -6.78125 2.5 -7.75 3.578125 -7.75 Z M 3.578125 -7.75 "/>
</g>
<g id="glyph-0-4">
<path d="M 5.546875 -8.5625 L 0.90625 -8.5625 L 0.90625 -4.25 L 1.828125 -4.25 C 2.234375 -4.4375 2.578125 -4.546875 3.046875 -4.546875 C 3.921875 -4.546875 4.609375 -4.078125 4.609375 -2.765625 C 4.609375 -1.515625 3.921875 -0.8125 2.859375 -0.8125 C 2.109375 -0.8125 1.5625 -1.078125 1.046875 -1.625 L 0.328125 -0.9375 C 1 -0.25 1.78125 0.15625 2.859375 0.15625 C 4.640625 0.15625 5.828125 -1.03125 5.828125 -2.734375 C 5.828125 -4.4375 4.84375 -5.453125 3.40625 -5.453125 C 2.9375 -5.453125 2.484375 -5.34375 2.03125 -5.125 L 2.03125 -7.640625 L 5.375 -7.640625 Z M 5.546875 -8.5625 "/>
</g>
<g id="glyph-0-5">
<path d="M 2.875 -8.6875 C 1.953125 -8.6875 1.171875 -8.359375 0.4375 -7.671875 L 1.046875 -6.96875 C 1.625 -7.515625 2.140625 -7.734375 2.8125 -7.734375 C 3.671875 -7.734375 4.234375 -7.25 4.234375 -6.4375 C 4.234375 -5.4375 3.53125 -4.921875 2.6875 -4.921875 L 2.25 -4.921875 L 2.109375 -4.015625 L 2.75 -4.015625 C 3.78125 -4.015625 4.453125 -3.65625 4.453125 -2.484375 C 4.453125 -1.46875 3.796875 -0.8125 2.71875 -0.8125 C 2.03125 -0.8125 1.453125 -1.0625 0.890625 -1.65625 L 0.1875 -1 C 0.84375 -0.21875 1.734375 0.15625 2.765625 0.15625 C 4.546875 0.15625 5.6875 -0.96875 5.6875 -2.46875 C 5.6875 -3.765625 4.828125 -4.4375 3.75 -4.546875 C 4.703125 -4.765625 5.40625 -5.421875 5.40625 -6.515625 C 5.40625 -7.671875 4.515625 -8.6875 2.875 -8.6875 Z M 2.875 -8.6875 "/>
</g>
<g id="glyph-0-6">
<path d="M 5.296875 -8.5625 L 0.3125 -8.5625 L 0.3125 -7.59375 L 4.109375 -7.59375 L 1.03125 -0.234375 L 2.09375 0.125 L 5.296875 -7.671875 Z M 5.296875 -8.5625 "/>
</g>
<g id="glyph-0-7">
<path d="M 4.140625 -8.5625 L 3.09375 -8.5625 L 0.453125 -6.921875 L 0.953125 -6.09375 L 2.953125 -7.3125 L 2.953125 0 L 4.140625 0 Z M 4.140625 -8.5625 "/>
</g>
<g id="glyph-1-0">
<path d="M 8.6875 -16.796875 L 1.96875 -16.796875 L 1.96875 5.59375 L 8.6875 5.59375 Z M 7.828125 -15.96875 L 7.828125 4.765625 L 2.84375 4.765625 L 2.84375 -15.96875 Z M 5.1875 -7.21875 C 4.5625 -7.21875 3.703125 -7.03125 3.703125 -6.59375 C 3.703125 -6.390625 3.84375 -6.21875 4.078125 -6.21875 C 4.140625 -6.21875 4.203125 -6.234375 4.28125 -6.265625 C 4.5625 -6.40625 4.78125 -6.453125 5.125 -6.453125 C 5.921875 -6.453125 6.09375 -5.96875 6.09375 -5.34375 C 6.09375 -4.5 5.796875 -4.171875 4.640625 -4.109375 L 4.640625 -2.765625 C 4.640625 -2.53125 4.828125 -2.390625 5.046875 -2.390625 C 5.234375 -2.390625 5.4375 -2.53125 5.4375 -2.765625 L 5.4375 -3.484375 C 6.515625 -3.640625 6.953125 -4.25 6.953125 -5.375 C 6.953125 -6.34375 6.5625 -7.21875 5.1875 -7.21875 Z M 5.046875 -1.921875 C 4.71875 -1.921875 4.484375 -1.6875 4.484375 -1.359375 C 4.484375 -1.03125 4.71875 -0.765625 5.046875 -0.765625 C 5.359375 -0.765625 5.59375 -1.03125 5.59375 -1.359375 C 5.59375 -1.6875 5.359375 -1.921875 5.046875 -1.921875 Z M 5.046875 -1.921875 "/>
</g>
<g id="glyph-1-1">
<path d="M 4.75 -4.515625 L 7.34375 -8.4375 L 5.6875 -8.4375 L 3.90625 -5.34375 L 2.140625 -8.4375 L 0.421875 -8.4375 L 3.03125 -4.453125 L 0.078125 0 L 1.75 0 L 3.84375 -3.5625 L 5.90625 0 L 7.6875 0 Z M 4.75 -4.515625 "/>
</g>
<g id="glyph-2-0">
<path d="M -16.796875 -8.6875 L -16.796875 -1.96875 L 5.59375 -1.96875 L 5.59375 -8.6875 Z M -15.96875 -7.828125 L 4.765625 -7.828125 L 4.765625 -2.84375 L -15.96875 -2.84375 Z M -7.21875 -5.1875 C -7.21875 -4.5625 -7.03125 -3.703125 -6.59375 -3.703125 C -6.390625 -3.703125 -6.21875 -3.84375 -6.21875 -4.078125 C -6.21875 -4.140625 -6.234375 -4.203125 -6.265625 -4.28125 C -6.40625 -4.5625 -6.453125 -4.78125 -6.453125 -5.125 C -6.453125 -5.921875 -5.96875 -6.09375 -5.34375 -6.09375 C -4.5 -6.09375 -4.171875 -5.796875 -4.109375 -4.640625 L -2.765625 -4.640625 C -2.53125 -4.640625 -2.390625 -4.828125 -2.390625 -5.046875 C -2.390625 -5.234375 -2.53125 -5.4375 -2.765625 -5.4375 L -3.484375 -5.4375 C -3.640625 -6.515625 -4.25 -6.953125 -5.375 -6.953125 C -6.34375 -6.953125 -7.21875 -6.5625 -7.21875 -5.1875 Z M -1.921875 -5.046875 C -1.921875 -4.71875 -1.6875 -4.484375 -1.359375 -4.484375 C -1.03125 -4.484375 -0.765625 -4.71875 -0.765625 -5.046875 C -0.765625 -5.359375 -1.03125 -5.59375 -1.359375 -5.59375 C -1.6875 -5.59375 -1.921875 -5.359375 -1.921875 -5.046875 Z M -1.921875 -5.046875 "/>
</g>
<g id="glyph-2-1">
<path d="M -8.4375 -7.71875 L -8.4375 -6.1875 L -1.078125 -3.984375 L -8.4375 -1.734375 L -8.4375 -0.15625 L 0 -2.984375 L 0 -3.484375 C 1.3125 -3.015625 1.96875 -2.53125 2.25 -0.8125 L 3.40625 -0.96875 C 3.15625 -3.3125 1.84375 -4.296875 0.046875 -4.890625 Z M -8.4375 -7.71875 "/>
</g>
</g>
<clipPath id="clip-0">
<path clip-rule="nonzero" d="M 51.128906 7.96875 L 759.03125 7.96875 L 759.03125 384.871094 L 51.128906 384.871094 Z M 51.128906 7.96875 "/>
</clipPath>
<clipPath id="clip-1">
<path clip-rule="nonzero" d="M 51.128906 356 L 759.03125 356 L 759.03125 358 L 51.128906 358 Z M 51.128906 356 "/>
</clipPath>
<clipPath id="clip-2">
<path clip-rule="nonzero" d="M 51.128906 246 L 759.03125 246 L 759.03125 248 L 51.128906 248 Z M 51.128906 246 "/>
</clipPath>
<clipPath id="clip-3">
<path clip-rule="nonzero" d="M 51.128906 136 L 759.03125 136 L 759.03125 138 L 51.128906 138 Z M 51.128906 136 "/>
</clipPath>
<clipPath id="clip-4">
<path clip-rule="nonzero" d="M 51.128906 26 L 759.03125 26 L 759.03125 28 L 51.128906 28 Z M 51.128906 26 "/>
</clipPath>
<clipPath id="clip-5">
<path clip-rule="nonzero" d="M 156 7.96875 L 158 7.96875 L 158 384.871094 L 156 384.871094 Z M 156 7.96875 "/>
</clipPath>
<clipPath id="clip-6">
<path clip-rule="nonzero" d="M 320 7.96875 L 322 7.96875 L 322 384.871094 L 320 384.871094 Z M 320 7.96875 "/>
</clipPath>
<clipPath id="clip-7">
<path clip-rule="nonzero" d="M 485 7.96875 L 486 7.96875 L 486 384.871094 L 485 384.871094 Z M 485 7.96875 "/>
</clipPath>
<clipPath id="clip-8">
<path clip-rule="nonzero" d="M 649 7.96875 L 651 7.96875 L 651 384.871094 L 649 384.871094 Z M 649 7.96875 "/>
</clipPath>
<clipPath id="clip-9">
<path clip-rule="nonzero" d="M 51.128906 301 L 759.03125 301 L 759.03125 303 L 51.128906 303 Z M 51.128906 301 "/>
</clipPath>
<clipPath id="clip-10">
<path clip-rule="nonzero" d="M 51.128906 191 L 759.03125 191 L 759.03125 193 L 51.128906 193 Z M 51.128906 191 "/>
</clipPath>
<clipPath id="clip-11">
<path clip-rule="nonzero" d="M 51.128906 81 L 759.03125 81 L 759.03125 83 L 51.128906 83 Z M 51.128906 81 "/>
</clipPath>
<clipPath id="clip-12">
<path clip-rule="nonzero" d="M 73 7.96875 L 76 7.96875 L 76 384.871094 L 73 384.871094 Z M 73 7.96875 "/>
</clipPath>
<clipPath id="clip-13">
<path clip-rule="nonzero" d="M 238 7.96875 L 240 7.96875 L 240 384.871094 L 238 384.871094 Z M 238 7.96875 "/>
</clipPath>
<clipPath id="clip-14">
<path clip-rule="nonzero" d="M 402 7.96875 L 405 7.96875 L 405 384.871094 L 402 384.871094 Z M 402 7.96875 "/>
</clipPath>
<clipPath id="clip-15">
<path clip-rule="nonzero" d="M 566 7.96875 L 569 7.96875 L 569 384.871094 L 566 384.871094 Z M 566 7.96875 "/>
</clipPath>
<clipPath id="clip-16">
<path clip-rule="nonzero" d="M 731 7.96875 L 733 7.96875 L 733 384.871094 L 731 384.871094 Z M 731 7.96875 "/>
</clipPath>
<clipPath id="clip-17">
<path clip-rule="nonzero" d="M 51.128906 7.96875 L 759.03125 7.96875 L 759.03125 384.871094 L 51.128906 384.871094 Z M 51.128906 7.96875 "/>
</clipPath>
</defs>
<rect x="-76.7" y="-43.2" width="920.4" height="518.4" fill="rgb(100%, 100%, 100%)" fill-opacity="1"/>
<rect x="-76.7" y="-43.2" width="920.4" height="518.4" fill="rgb(100%, 100%, 100%)" fill-opacity="1"/>
<path fill="none" stroke-width="1.551969" stroke-linecap="round" stroke-linejoin="round" stroke="rgb(100%, 100%, 100%)" stroke-opacity="1" stroke-miterlimit="10" d="M 0 432 L 767 432 L 767 0 L 0 0 Z M 0 432 "/>
<g clip-path="url(#clip-0)">
<path fill-rule="nonzero" fill="rgb(100%, 100%, 100%)" fill-opacity="1" d="M 51.128906 384.871094 L 759.03125 384.871094 L 759.03125 7.96875 L 51.128906 7.96875 Z M 51.128906 384.871094 "/>
</g>
<g clip-path="url(#clip-1)">
<path fill="none" stroke-width="0.775984" stroke-linecap="butt" stroke-linejoin="round" stroke="rgb(92.156863%, 92.156863%, 92.156863%)" stroke-opacity="1" stroke-miterlimit="10" d="M 51.128906 356.894531 L 759.03125 356.894531 "/>
</g>
<g clip-path="url(#clip-2)">
<path fill="none" stroke-width="0.775984" stroke-linecap="butt" stroke-linejoin="round" stroke="rgb(92.156863%, 92.156863%, 92.156863%)" stroke-opacity="1" stroke-miterlimit="10" d="M 51.128906 246.9375 L 759.03125 246.9375 "/>
</g>
<g clip-path="url(#clip-3)">
<path fill="none" stroke-width="0.775984" stroke-linecap="butt" stroke-linejoin="round" stroke="rgb(92.156863%, 92.156863%, 92.156863%)" stroke-opacity="1" stroke-miterlimit="10" d="M 51.128906 136.980469 L 759.03125 136.980469 "/>
</g>
<g clip-path="url(#clip-4)">
<path fill="none" stroke-width="0.775984" stroke-linecap="butt" stroke-linejoin="round" stroke="rgb(92.156863%, 92.156863%, 92.156863%)" stroke-opacity="1" stroke-miterlimit="10" d="M 51.128906 27.023438 L 759.03125 27.023438 "/>
</g>
<g clip-path="url(#clip-5)">
<path fill="none" stroke-width="0.775984" stroke-linecap="butt" stroke-linejoin="round" stroke="rgb(92.156863%, 92.156863%, 92.156863%)" stroke-opacity="1" stroke-miterlimit="10" d="M 156.707031 384.871094 L 156.707031 7.96875 "/>
</g>
<g clip-path="url(#clip-6)">
<path fill="none" stroke-width="0.775984" stroke-linecap="butt" stroke-linejoin="round" stroke="rgb(92.156863%, 92.156863%, 92.156863%)" stroke-opacity="1" stroke-miterlimit="10" d="M 321.128906 384.871094 L 321.128906 7.96875 "/>
</g>
<g clip-path="url(#clip-7)">
<path fill="none" stroke-width="0.775984" stroke-linecap="butt" stroke-linejoin="round" stroke="rgb(92.156863%, 92.156863%, 92.156863%)" stroke-opacity="1" stroke-miterlimit="10" d="M 485.546875 384.871094 L 485.546875 7.96875 "/>
</g>
<g clip-path="url(#clip-8)">
<path fill="none" stroke-width="0.775984" stroke-linecap="butt" stroke-linejoin="round" stroke="rgb(92.156863%, 92.156863%, 92.156863%)" stroke-opacity="1" stroke-miterlimit="10" d="M 649.964844 384.871094 L 649.964844 7.96875 "/>
</g>
<g clip-path="url(#clip-9)">
<path fill="none" stroke-width="1.551969" stroke-linecap="butt" stroke-linejoin="round" stroke="rgb(92.156863%, 92.156863%, 92.156863%)" stroke-opacity="1" stroke-miterlimit="10" d="M 51.128906 301.914062 L 759.03125 301.914062 "/>
</g>
<g clip-path="url(#clip-10)">
<path fill="none" stroke-width="1.551969" stroke-linecap="butt" stroke-linejoin="round" stroke="rgb(92.156863%, 92.156863%, 92.156863%)" stroke-opacity="1" stroke-miterlimit="10" d="M 51.128906 191.957031 L 759.03125 191.957031 "/>
</g>
<g clip-path="url(#clip-11)">
<path fill="none" stroke-width="1.551969" stroke-linecap="butt" stroke-linejoin="round" stroke="rgb(92.156863%, 92.156863%, 92.156863%)" stroke-opacity="1" stroke-miterlimit="10" d="M 51.128906 82 L 759.03125 82 "/>
</g>
<g clip-path="url(#clip-12)">
<path fill="none" stroke-width="1.551969" stroke-linecap="butt" stroke-linejoin="round" stroke="rgb(92.156863%, 92.156863%, 92.156863%)" stroke-opacity="1" stroke-miterlimit="10" d="M 74.5 384.871094 L 74.5 7.96875 "/>
</g>
<g clip-path="url(#clip-13)">
<path fill="none" stroke-width="1.551969" stroke-linecap="butt" stroke-linejoin="round" stroke="rgb(92.156863%, 92.156863%, 92.156863%)" stroke-opacity="1" stroke-miterlimit="10" d="M 238.917969 384.871094 L 238.917969 7.96875 "/>
</g>
<g clip-path="url(#clip-14)">
<path fill="none" stroke-width="1.551969" stroke-linecap="butt" stroke-linejoin="round" stroke="rgb(92.156863%, 92.156863%, 92.156863%)" stroke-opacity="1" stroke-miterlimit="10" d="M 403.335938 384.871094 L 403.335938 7.96875 "/>
</g>
<g clip-path="url(#clip-15)">
<path fill="none" stroke-width="1.551969" stroke-linecap="butt" stroke-linejoin="round" stroke="rgb(92.156863%, 92.156863%, 92.156863%)" stroke-opacity="1" stroke-miterlimit="10" d="M 567.757812 384.871094 L 567.757812 7.96875 "/>
</g>
<g clip-path="url(#clip-16)">
<path fill="none" stroke-width="1.551969" stroke-linecap="butt" stroke-linejoin="round" stroke="rgb(92.156863%, 92.156863%, 92.156863%)" stroke-opacity="1" stroke-miterlimit="10" d="M 732.175781 384.871094 L 732.175781 7.96875 "/>
</g>
<path fill-rule="nonzero" fill="rgb(0%, 0%, 0%)" fill-opacity="1" stroke-width="1.03078" stroke-linecap="round" stroke-linejoin="round" stroke="rgb(0%, 0%, 0%)" stroke-opacity="1" stroke-miterlimit="10" d="M 251.960938 230.398438 C 251.960938 234.1875 246.273438 234.1875 246.273438 230.398438 C 246.273438 226.605469 251.960938 226.605469 251.960938 230.398438 "/>
<path fill-rule="nonzero" fill="rgb(0%, 0%, 0%)" fill-opacity="1" stroke-width="1.03078" stroke-linecap="round" stroke-linejoin="round" stroke="rgb(0%, 0%, 0%)" stroke-opacity="1" stroke-miterlimit="10" d="M 322.078125 266.003906 C 322.078125 269.796875 316.394531 269.796875 316.394531 266.003906 C 316.394531 262.210938 322.078125 262.210938 322.078125 266.003906 "/>
<path fill-rule="nonzero" fill="rgb(0%, 0%, 0%)" fill-opacity="1" stroke-width="1.03078" stroke-linecap="round" stroke-linejoin="round" stroke="rgb(0%, 0%, 0%)" stroke-opacity="1" stroke-miterlimit="10" d="M 454.09375 176.078125 C 454.09375 179.871094 448.40625 179.871094 448.40625 176.078125 C 448.40625 172.289062 454.09375 172.289062 454.09375 176.078125 "/>
<path fill-rule="nonzero" fill="rgb(0%, 0%, 0%)" fill-opacity="1" stroke-width="1.03078" stroke-linecap="round" stroke-linejoin="round" stroke="rgb(0%, 0%, 0%)" stroke-opacity="1" stroke-miterlimit="10" d="M 674.648438 194.238281 C 674.648438 198.027344 668.960938 198.027344 668.960938 194.238281 C 668.960938 190.445312 674.648438 190.445312 674.648438 194.238281 "/>
<path fill-rule="nonzero" fill="rgb(0%, 0%, 0%)" fill-opacity="1" stroke-width="1.03078" stroke-linecap="round" stroke-linejoin="round" stroke="rgb(0%, 0%, 0%)" stroke-opacity="1" stroke-miterlimit="10" d="M 209.984375 185.429688 C 209.984375 189.222656 204.296875 189.222656 204.296875 185.429688 C 204.296875 181.640625 209.984375 181.640625 209.984375 185.429688 "/>
<path fill-rule="nonzero" fill="rgb(0%, 0%, 0%)" fill-opacity="1" stroke-width="1.03078" stroke-linecap="round" stroke-linejoin="round" stroke="rgb(0%, 0%, 0%)" stroke-opacity="1" stroke-miterlimit="10" d="M 668.191406 25.101562 C 668.191406 28.894531 662.503906 28.894531 662.503906 25.101562 C 662.503906 21.3125 668.191406 21.3125 668.191406 25.101562 "/>
<path fill-rule="nonzero" fill="rgb(0%, 0%, 0%)" fill-opacity="1" stroke-width="1.03078" stroke-linecap="round" stroke-linejoin="round" stroke="rgb(0%, 0%, 0%)" stroke-opacity="1" stroke-miterlimit="10" d="M 698.632812 145.519531 C 698.632812 149.308594 692.945312 149.308594 692.945312 145.519531 C 692.945312 141.726562 698.632812 141.726562 698.632812 145.519531 "/>
<path fill-rule="nonzero" fill="rgb(0%, 0%, 0%)" fill-opacity="1" stroke-width="1.03078" stroke-linecap="round" stroke-linejoin="round" stroke="rgb(0%, 0%, 0%)" stroke-opacity="1" stroke-miterlimit="10" d="M 511.933594 235.800781 C 511.933594 239.589844 506.246094 239.589844 506.246094 235.800781 C 506.246094 232.007812 511.933594 232.007812 511.933594 235.800781 "/>
<path fill-rule="nonzero" fill="rgb(0%, 0%, 0%)" fill-opacity="1" stroke-width="1.03078" stroke-linecap="round" stroke-linejoin="round" stroke="rgb(0%, 0%, 0%)" stroke-opacity="1" stroke-miterlimit="10" d="M 491.097656 152.996094 C 491.097656 156.785156 485.410156 156.785156 485.410156 152.996094 C 485.410156 149.203125 491.097656 149.203125 491.097656 152.996094 "/>
<path fill-rule="nonzero" fill="rgb(0%, 0%, 0%)" fill-opacity="1" stroke-width="1.03078" stroke-linecap="round" stroke-linejoin="round" stroke="rgb(0%, 0%, 0%)" stroke-opacity="1" stroke-miterlimit="10" d="M 117.976562 297.792969 C 117.976562 301.582031 112.292969 301.582031 112.292969 297.792969 C 112.292969 294 117.976562 294 117.976562 297.792969 "/>
<path fill-rule="nonzero" fill="rgb(0%, 0%, 0%)" fill-opacity="1" stroke-width="1.03078" stroke-linecap="round" stroke-linejoin="round" stroke="rgb(0%, 0%, 0%)" stroke-opacity="1" stroke-miterlimit="10" d="M 212.808594 131.375 C 212.808594 135.167969 207.121094 135.167969 207.121094 131.375 C 207.121094 127.585938 212.808594 127.585938 212.808594 131.375 "/>
<path fill-rule="nonzero" fill="rgb(0%, 0%, 0%)" fill-opacity="1" stroke-width="1.03078" stroke-linecap="round" stroke-linejoin="round" stroke="rgb(0%, 0%, 0%)" stroke-opacity="1" stroke-miterlimit="10" d="M 193.460938 271.070312 C 193.460938 274.859375 187.773438 274.859375 187.773438 271.070312 C 187.773438 267.277344 193.460938 267.277344 193.460938 271.070312 "/>
<path fill-rule="nonzero" fill="rgb(0%, 0%, 0%)" fill-opacity="1" stroke-width="1.03078" stroke-linecap="round" stroke-linejoin="round" stroke="rgb(0%, 0%, 0%)" stroke-opacity="1" stroke-miterlimit="10" d="M 529.179688 135.570312 C 529.179688 139.363281 523.496094 139.363281 523.496094 135.570312 C 523.496094 131.78125 529.179688 131.78125 529.179688 135.570312 "/>
<path fill-rule="nonzero" fill="rgb(0%, 0%, 0%)" fill-opacity="1" stroke-width="1.03078" stroke-linecap="round" stroke-linejoin="round" stroke="rgb(0%, 0%, 0%)" stroke-opacity="1" stroke-miterlimit="10" d="M 329.957031 228.578125 C 329.957031 232.367188 324.273438 232.367188 324.273438 228.578125 C 324.273438 224.785156 329.957031 224.785156 329.957031 228.578125 "/>
<path fill-rule="nonzero" fill="rgb(0%, 0%, 0%)" fill-opacity="1" stroke-width="1.03078" stroke-linecap="round" stroke-linejoin="round" stroke="rgb(0%, 0%, 0%)" stroke-opacity="1" stroke-miterlimit="10" d="M 583.648438 198.875 C 583.648438 202.667969 577.960938 202.667969 577.960938 198.875 C 577.960938 195.085938 583.648438 195.085938 583.648438 198.875 "/>
<path fill-rule="nonzero" fill="rgb(0%, 0%, 0%)" fill-opacity="1" stroke-width="1.03078" stroke-linecap="round" stroke-linejoin="round" stroke="rgb(0%, 0%, 0%)" stroke-opacity="1" stroke-miterlimit="10" d="M 404.667969 198.503906 C 404.667969 202.292969 398.980469 202.292969 398.980469 198.503906 C 398.980469 194.710938 404.667969 194.710938 404.667969 198.503906 "/>
<path fill-rule="nonzero" fill="rgb(0%, 0%, 0%)" fill-opacity="1" stroke-width="1.03078" stroke-linecap="round" stroke-linejoin="round" stroke="rgb(0%, 0%, 0%)" stroke-opacity="1" stroke-miterlimit="10" d="M 549.304688 267.007812 C 549.304688 270.796875 543.617188 270.796875 543.617188 267.007812 C 543.617188 263.214844 549.304688 263.214844 549.304688 267.007812 "/>
<path fill-rule="nonzero" fill="rgb(0%, 0%, 0%)" fill-opacity="1" stroke-width="1.03078" stroke-linecap="round" stroke-linejoin="round" stroke="rgb(0%, 0%, 0%)" stroke-opacity="1" stroke-miterlimit="10" d="M 729.695312 35.925781 C 729.695312 39.71875 724.007812 39.71875 724.007812 35.925781 C 724.007812 32.136719 729.695312 32.136719 729.695312 35.925781 "/>
<path fill-rule="nonzero" fill="rgb(0%, 0%, 0%)" fill-opacity="1" stroke-width="1.03078" stroke-linecap="round" stroke-linejoin="round" stroke="rgb(0%, 0%, 0%)" stroke-opacity="1" stroke-miterlimit="10" d="M 327.28125 222.449219 C 327.28125 226.242188 321.597656 226.242188 321.597656 222.449219 C 321.597656 218.660156 327.28125 218.660156 327.28125 222.449219 "/>
<path fill-rule="nonzero" fill="rgb(0%, 0%, 0%)" fill-opacity="1" stroke-width="1.03078" stroke-linecap="round" stroke-linejoin="round" stroke="rgb(0%, 0%, 0%)" stroke-opacity="1" stroke-miterlimit="10" d="M 588.648438 37.140625 C 588.648438 40.933594 582.964844 40.933594 582.964844 37.140625 C 582.964844 33.351562 588.648438 33.351562 588.648438 37.140625 "/>
<path fill-rule="nonzero" fill="rgb(0%, 0%, 0%)" fill-opacity="1" stroke-width="1.03078" stroke-linecap="round" stroke-linejoin="round" stroke="rgb(0%, 0%, 0%)" stroke-opacity="1" stroke-miterlimit="10" d="M 692.078125 101.050781 C 692.078125 104.839844 686.390625 104.839844 686.390625 101.050781 C 686.390625 97.257812 692.078125 97.257812 692.078125 101.050781 "/>
<path fill-rule="nonzero" fill="rgb(0%, 0%, 0%)" fill-opacity="1" stroke-width="1.03078" stroke-linecap="round" stroke-linejoin="round" stroke="rgb(0%, 0%, 0%)" stroke-opacity="1" stroke-miterlimit="10" d="M 216.863281 301.292969 C 216.863281 305.082031 211.175781 305.082031 211.175781 301.292969 C 211.175781 297.5 216.863281 297.5 216.863281 301.292969 "/>
<path fill-rule="nonzero" fill="rgb(0%, 0%, 0%)" fill-opacity="1" stroke-width="1.03078" stroke-linecap="round" stroke-linejoin="round" stroke="rgb(0%, 0%, 0%)" stroke-opacity="1" stroke-miterlimit="10" d="M 505.933594 146.523438 C 505.933594 150.3125 500.246094 150.3125 500.246094 146.523438 C 500.246094 142.730469 505.933594 142.730469 505.933594 146.523438 "/>
<path fill-rule="nonzero" fill="rgb(0%, 0%, 0%)" fill-opacity="1" stroke-width="1.03078" stroke-linecap="round" stroke-linejoin="round" stroke="rgb(0%, 0%, 0%)" stroke-opacity="1" stroke-miterlimit="10" d="M 159.917969 329.800781 C 159.917969 333.59375 154.230469 333.59375 154.230469 329.800781 C 154.230469 326.011719 159.917969 326.011719 159.917969 329.800781 "/>
<path fill-rule="nonzero" fill="rgb(0%, 0%, 0%)" fill-opacity="1" stroke-width="1.03078" stroke-linecap="round" stroke-linejoin="round" stroke="rgb(0%, 0%, 0%)" stroke-opacity="1" stroke-miterlimit="10" d="M 253.085938 320.886719 C 253.085938 324.679688 247.402344 324.679688 247.402344 320.886719 C 247.402344 317.097656 253.085938 317.097656 253.085938 320.886719 "/>
<path fill-rule="nonzero" fill="rgb(0%, 0%, 0%)" fill-opacity="1" stroke-width="1.03078" stroke-linecap="round" stroke-linejoin="round" stroke="rgb(0%, 0%, 0%)" stroke-opacity="1" stroke-miterlimit="10" d="M 331.28125 213.71875 C 331.28125 217.507812 325.59375 217.507812 325.59375 213.71875 C 325.59375 209.925781 331.28125 209.925781 331.28125 213.71875 "/>
<path fill-rule="nonzero" fill="rgb(0%, 0%, 0%)" fill-opacity="1" stroke-width="1.03078" stroke-linecap="round" stroke-linejoin="round" stroke="rgb(0%, 0%, 0%)" stroke-opacity="1" stroke-miterlimit="10" d="M 86.148438 323.785156 C 86.148438 327.574219 80.460938 327.574219 80.460938 323.785156 C 80.460938 319.992188 86.148438 319.992188 86.148438 323.785156 "/>
<path fill-rule="nonzero" fill="rgb(0%, 0%, 0%)" fill-opacity="1" stroke-width="1.03078" stroke-linecap="round" stroke-linejoin="round" stroke="rgb(0%, 0%, 0%)" stroke-opacity="1" stroke-miterlimit="10" d="M 328.828125 230.375 C 328.828125 234.167969 323.144531 234.167969 323.144531 230.375 C 323.144531 226.585938 328.828125 226.585938 328.828125 230.375 "/>
<path fill-rule="nonzero" fill="rgb(0%, 0%, 0%)" fill-opacity="1" stroke-width="1.03078" stroke-linecap="round" stroke-linejoin="round" stroke="rgb(0%, 0%, 0%)" stroke-opacity="1" stroke-miterlimit="10" d="M 649.316406 135.257812 C 649.316406 139.050781 643.632812 139.050781 643.632812 135.257812 C 643.632812 131.46875 649.316406 131.46875 649.316406 135.257812 "/>
<path fill-rule="nonzero" fill="rgb(0%, 0%, 0%)" fill-opacity="1" stroke-width="1.03078" stroke-linecap="round" stroke-linejoin="round" stroke="rgb(0%, 0%, 0%)" stroke-opacity="1" stroke-miterlimit="10" d="M 301.183594 270.707031 C 301.183594 274.496094 295.496094 274.496094 295.496094 270.707031 C 295.496094 266.914062 301.183594 266.914062 301.183594 270.707031 "/>
<path fill-rule="nonzero" fill="rgb(0%, 0%, 0%)" fill-opacity="1" stroke-width="1.03078" stroke-linecap="round" stroke-linejoin="round" stroke="rgb(0%, 0%, 0%)" stroke-opacity="1" stroke-miterlimit="10" d="M 394.394531 243.066406 C 394.394531 246.855469 388.707031 246.855469 388.707031 243.066406 C 388.707031 239.273438 394.394531 239.273438 394.394531 243.066406 "/>
<path fill-rule="nonzero" fill="rgb(0%, 0%, 0%)" fill-opacity="1" stroke-width="1.03078" stroke-linecap="round" stroke-linejoin="round" stroke="rgb(0%, 0%, 0%)" stroke-opacity="1" stroke-miterlimit="10" d="M 471.664062 197.273438 C 471.664062 201.0625 465.976562 201.0625 465.976562 197.273438 C 465.976562 193.480469 471.664062 193.480469 471.664062 197.273438 "/>
<path fill-rule="nonzero" fill="rgb(0%, 0%, 0%)" fill-opacity="1" stroke-width="1.03078" stroke-linecap="round" stroke-linejoin="round" stroke="rgb(0%, 0%, 0%)" stroke-opacity="1" stroke-miterlimit="10" d="M 401.933594 144.890625 C 401.933594 148.679688 396.246094 148.679688 396.246094 144.890625 C 396.246094 141.097656 401.933594 141.097656 401.933594 144.890625 "/>
<path fill-rule="nonzero" fill="rgb(0%, 0%, 0%)" fill-opacity="1" stroke-width="1.03078" stroke-linecap="round" stroke-linejoin="round" stroke="rgb(0%, 0%, 0%)" stroke-opacity="1" stroke-miterlimit="10" d="M 199.8125 350.871094 C 199.8125 354.660156 194.125 354.660156 194.125 350.871094 C 194.125 347.078125 199.8125 347.078125 199.8125 350.871094 "/>
<path fill-rule="nonzero" fill="rgb(0%, 0%, 0%)" fill-opacity="1" stroke-width="1.03078" stroke-linecap="round" stroke-linejoin="round" stroke="rgb(0%, 0%, 0%)" stroke-opacity="1" stroke-miterlimit="10" d="M 621.488281 114.601562 C 621.488281 118.394531 615.800781 118.394531 615.800781 114.601562 C 615.800781 110.8125 621.488281 110.8125 621.488281 114.601562 "/>
<path fill-rule="nonzero" fill="rgb(0%, 0%, 0%)" fill-opacity="1" stroke-width="1.03078" stroke-linecap="round" stroke-linejoin="round" stroke="rgb(0%, 0%, 0%)" stroke-opacity="1" stroke-miterlimit="10" d="M 516.976562 158.65625 C 516.976562 162.445312 511.289062 162.445312 511.289062 158.65625 C 511.289062 154.863281 516.976562 154.863281 516.976562 158.65625 "/>
<path fill-rule="nonzero" fill="rgb(0%, 0%, 0%)" fill-opacity="1" stroke-width="1.03078" stroke-linecap="round" stroke-linejoin="round" stroke="rgb(0%, 0%, 0%)" stroke-opacity="1" stroke-miterlimit="10" d="M 599.695312 95.003906 C 599.695312 98.792969 594.007812 98.792969 594.007812 95.003906 C 594.007812 91.210938 599.695312 91.210938 599.695312 95.003906 "/>
<path fill-rule="nonzero" fill="rgb(0%, 0%, 0%)" fill-opacity="1" stroke-width="1.03078" stroke-linecap="round" stroke-linejoin="round" stroke="rgb(0%, 0%, 0%)" stroke-opacity="1" stroke-miterlimit="10" d="M 148.335938 298.460938 C 148.335938 302.253906 142.648438 302.253906 142.648438 298.460938 C 142.648438 294.671875 148.335938 294.671875 148.335938 298.460938 "/>
<path fill-rule="nonzero" fill="rgb(0%, 0%, 0%)" fill-opacity="1" stroke-width="1.03078" stroke-linecap="round" stroke-linejoin="round" stroke="rgb(0%, 0%, 0%)" stroke-opacity="1" stroke-miterlimit="10" d="M 553.308594 146.289062 C 553.308594 150.082031 547.625 150.082031 547.625 146.289062 C 547.625 142.5 553.308594 142.5 553.308594 146.289062 "/>
<path fill-rule="nonzero" fill="rgb(0%, 0%, 0%)" fill-opacity="1" stroke-width="1.03078" stroke-linecap="round" stroke-linejoin="round" stroke="rgb(0%, 0%, 0%)" stroke-opacity="1" stroke-miterlimit="10" d="M 347.828125 210.351562 C 347.828125 214.144531 342.140625 214.144531 342.140625 210.351562 C 342.140625 206.5625 347.828125 206.5625 347.828125 210.351562 "/>
<path fill-rule="nonzero" fill="rgb(0%, 0%, 0%)" fill-opacity="1" stroke-width="1.03078" stroke-linecap="round" stroke-linejoin="round" stroke="rgb(0%, 0%, 0%)" stroke-opacity="1" stroke-miterlimit="10" d="M 617.257812 178.285156 C 617.257812 182.078125 611.574219 182.078125 611.574219 178.285156 C 611.574219 174.492188 617.257812 174.492188 617.257812 178.285156 "/>
<path fill-rule="nonzero" fill="rgb(0%, 0%, 0%)" fill-opacity="1" stroke-width="1.03078" stroke-linecap="round" stroke-linejoin="round" stroke="rgb(0%, 0%, 0%)" stroke-opacity="1" stroke-miterlimit="10" d="M 502.898438 114.554688 C 502.898438 118.347656 497.210938 118.347656 497.210938 114.554688 C 497.210938 110.765625 502.898438 110.765625 502.898438 114.554688 "/>
<path fill-rule="nonzero" fill="rgb(0%, 0%, 0%)" fill-opacity="1" stroke-width="1.03078" stroke-linecap="round" stroke-linejoin="round" stroke="rgb(0%, 0%, 0%)" stroke-opacity="1" stroke-miterlimit="10" d="M 592.257812 91.765625 C 592.257812 95.558594 586.574219 95.558594 586.574219 91.765625 C 586.574219 87.976562 592.257812 87.976562 592.257812 91.765625 "/>
<path fill-rule="nonzero" fill="rgb(0%, 0%, 0%)" fill-opacity="1" stroke-width="1.03078" stroke-linecap="round" stroke-linejoin="round" stroke="rgb(0%, 0%, 0%)" stroke-opacity="1" stroke-miterlimit="10" d="M 441.0625 160.042969 C 441.0625 163.832031 435.375 163.832031 435.375 160.042969 C 435.375 156.25 441.0625 156.25 441.0625 160.042969 "/>
<path fill-rule="nonzero" fill="rgb(0%, 0%, 0%)" fill-opacity="1" stroke-width="1.03078" stroke-linecap="round" stroke-linejoin="round" stroke="rgb(0%, 0%, 0%)" stroke-opacity="1" stroke-miterlimit="10" d="M 425.726562 115.65625 C 425.726562 119.445312 420.039062 119.445312 420.039062 115.65625 C 420.039062 111.863281 425.726562 111.863281 425.726562 115.65625 "/>
<path fill-rule="nonzero" fill="rgb(0%, 0%, 0%)" fill-opacity="1" stroke-width="1.03078" stroke-linecap="round" stroke-linejoin="round" stroke="rgb(0%, 0%, 0%)" stroke-opacity="1" stroke-miterlimit="10" d="M 596.484375 123.660156 C 596.484375 127.449219 590.796875 127.449219 590.796875 123.660156 C 590.796875 119.867188 596.484375 119.867188 596.484375 123.660156 "/>
<path fill-rule="nonzero" fill="rgb(0%, 0%, 0%)" fill-opacity="1" stroke-width="1.03078" stroke-linecap="round" stroke-linejoin="round" stroke="rgb(0%, 0%, 0%)" stroke-opacity="1" stroke-miterlimit="10" d="M 92.6875 367.738281 C 92.6875 371.53125 87 371.53125 87 367.738281 C 87 363.949219 92.6875 363.949219 92.6875 367.738281 "/>
<path fill-rule="nonzero" fill="rgb(0%, 0%, 0%)" fill-opacity="1" stroke-width="1.03078" stroke-linecap="round" stroke-linejoin="round" stroke="rgb(0%, 0%, 0%)" stroke-opacity="1" stroke-miterlimit="10" d="M 391.207031 244.226562 C 391.207031 248.015625 385.519531 248.015625 385.519531 244.226562 C 385.519531 240.433594 391.207031 240.433594 391.207031 244.226562 "/>
<path fill-rule="nonzero" fill="rgb(0%, 0%, 0%)" fill-opacity="1" stroke-width="1.03078" stroke-linecap="round" stroke-linejoin="round" stroke="rgb(0%, 0%, 0%)" stroke-opacity="1" stroke-miterlimit="10" d="M 558.96875 232.355469 C 558.96875 236.144531 553.28125 236.144531 553.28125 232.355469 C 553.28125 228.5625 558.96875 228.5625 558.96875 232.355469 "/>
<path fill-rule="nonzero" fill="rgb(0%, 0%, 0%)" fill-opacity="1" stroke-width="1.03078" stroke-linecap="round" stroke-linejoin="round" stroke="rgb(0%, 0%, 0%)" stroke-opacity="1" stroke-miterlimit="10" d="M 532.9375 198.453125 C 532.9375 202.242188 527.25 202.242188 527.25 198.453125 C 527.25 194.660156 532.9375 194.660156 532.9375 198.453125 "/>
<path fill-rule="nonzero" fill="rgb(0%, 0%, 0%)" fill-opacity="1" stroke-width="1.03078" stroke-linecap="round" stroke-linejoin="round" stroke="rgb(0%, 0%, 0%)" stroke-opacity="1" stroke-miterlimit="10" d="M 391.460938 246.742188 C 391.460938 250.535156 385.773438 250.535156 385.773438 246.742188 C 385.773438 242.953125 391.460938 242.953125 391.460938 246.742188 "/>
<path fill-rule="nonzero" fill="rgb(0%, 0%, 0%)" fill-opacity="1" stroke-width="1.03078" stroke-linecap="round" stroke-linejoin="round" stroke="rgb(0%, 0%, 0%)" stroke-opacity="1" stroke-miterlimit="10" d="M 643.738281 138.617188 C 643.738281 142.40625 638.054688 142.40625 638.054688 138.617188 C 638.054688 134.824219 643.738281 134.824219 643.738281 138.617188 "/>
<path fill-rule="nonzero" fill="rgb(0%, 0%, 0%)" fill-opacity="1" stroke-width="1.03078" stroke-linecap="round" stroke-linejoin="round" stroke="rgb(0%, 0%, 0%)" stroke-opacity="1" stroke-miterlimit="10" d="M 365.46875 270.105469 C 365.46875 273.894531 359.78125 273.894531 359.78125 270.105469 C 359.78125 266.3125 365.46875 266.3125 365.46875 270.105469 "/>
<path fill-rule="nonzero" fill="rgb(0%, 0%, 0%)" fill-opacity="1" stroke-width="1.03078" stroke-linecap="round" stroke-linejoin="round" stroke="rgb(0%, 0%, 0%)" stroke-opacity="1" stroke-miterlimit="10" d="M 238.339844 247.46875 C 238.339844 251.257812 232.652344 251.257812 232.652344 247.46875 C 232.652344 243.675781 238.339844 243.675781 238.339844 247.46875 "/>
<path fill-rule="nonzero" fill="rgb(0%, 0%, 0%)" fill-opacity="1" stroke-width="1.03078" stroke-linecap="round" stroke-linejoin="round" stroke="rgb(0%, 0%, 0%)" stroke-opacity="1" stroke-miterlimit="10" d="M 123.828125 324.691406 C 123.828125 328.484375 118.140625 328.484375 118.140625 324.691406 C 118.140625 320.902344 123.828125 320.902344 123.828125 324.691406 "/>
<path fill-rule="nonzero" fill="rgb(0%, 0%, 0%)" fill-opacity="1" stroke-width="1.03078" stroke-linecap="round" stroke-linejoin="round" stroke="rgb(0%, 0%, 0%)" stroke-opacity="1" stroke-miterlimit="10" d="M 142.757812 186.160156 C 142.757812 189.949219 137.074219 189.949219 137.074219 186.160156 C 137.074219 182.367188 142.757812 182.367188 142.757812 186.160156 "/>
<path fill-rule="nonzero" fill="rgb(0%, 0%, 0%)" fill-opacity="1" stroke-width="1.03078" stroke-linecap="round" stroke-linejoin="round" stroke="rgb(0%, 0%, 0%)" stroke-opacity="1" stroke-miterlimit="10" d="M 285.347656 203.390625 C 285.347656 207.183594 279.660156 207.183594 279.660156 203.390625 C 279.660156 199.601562 285.347656 199.601562 285.347656 203.390625 "/>
<path fill-rule="nonzero" fill="rgb(0%, 0%, 0%)" fill-opacity="1" stroke-width="1.03078" stroke-linecap="round" stroke-linejoin="round" stroke="rgb(0%, 0%, 0%)" stroke-opacity="1" stroke-miterlimit="10" d="M 418.4375 154.929688 C 418.4375 158.71875 412.75 158.71875 412.75 154.929688 C 412.75 151.136719 418.4375 151.136719 418.4375 154.929688 "/>
<path fill-rule="nonzero" fill="rgb(0%, 0%, 0%)" fill-opacity="1" stroke-width="1.03078" stroke-linecap="round" stroke-linejoin="round" stroke="rgb(0%, 0%, 0%)" stroke-opacity="1" stroke-miterlimit="10" d="M 512.726562 157.046875 C 512.726562 160.835938 507.042969 160.835938 507.042969 157.046875 C 507.042969 153.253906 512.726562 153.253906 512.726562 157.046875 "/>
<path fill-rule="nonzero" fill="rgb(0%, 0%, 0%)" fill-opacity="1" stroke-width="1.03078" stroke-linecap="round" stroke-linejoin="round" stroke="rgb(0%, 0%, 0%)" stroke-opacity="1" stroke-miterlimit="10" d="M 344.90625 133.382812 C 344.90625 137.175781 339.21875 137.175781 339.21875 133.382812 C 339.21875 129.59375 344.90625 129.59375 344.90625 133.382812 "/>
<path fill-rule="nonzero" fill="rgb(0%, 0%, 0%)" fill-opacity="1" stroke-width="1.03078" stroke-linecap="round" stroke-linejoin="round" stroke="rgb(0%, 0%, 0%)" stroke-opacity="1" stroke-miterlimit="10" d="M 677.71875 166.226562 C 677.71875 170.015625 672.03125 170.015625 672.03125 166.226562 C 672.03125 162.433594 677.71875 162.433594 677.71875 166.226562 "/>
<path fill-rule="nonzero" fill="rgb(0%, 0%, 0%)" fill-opacity="1" stroke-width="1.03078" stroke-linecap="round" stroke-linejoin="round" stroke="rgb(0%, 0%, 0%)" stroke-opacity="1" stroke-miterlimit="10" d="M 270.4375 272.414062 C 270.4375 276.203125 264.75 276.203125 264.75 272.414062 C 264.75 268.621094 270.4375 268.621094 270.4375 272.414062 "/>
<path fill-rule="nonzero" fill="rgb(0%, 0%, 0%)" fill-opacity="1" stroke-width="1.03078" stroke-linecap="round" stroke-linejoin="round" stroke="rgb(0%, 0%, 0%)" stroke-opacity="1" stroke-miterlimit="10" d="M 379.257812 137.359375 C 379.257812 141.148438 373.574219 141.148438 373.574219 137.359375 C 373.574219 133.566406 379.257812 133.566406 379.257812 137.359375 "/>
<path fill-rule="nonzero" fill="rgb(0%, 0%, 0%)" fill-opacity="1" stroke-width="1.03078" stroke-linecap="round" stroke-linejoin="round" stroke="rgb(0%, 0%, 0%)" stroke-opacity="1" stroke-miterlimit="10" d="M 295.949219 275.554688 C 295.949219 279.347656 290.265625 279.347656 290.265625 275.554688 C 290.265625 271.765625 295.949219 271.765625 295.949219 275.554688 "/>
<path fill-rule="nonzero" fill="rgb(0%, 0%, 0%)" fill-opacity="1" stroke-width="1.03078" stroke-linecap="round" stroke-linejoin="round" stroke="rgb(0%, 0%, 0%)" stroke-opacity="1" stroke-miterlimit="10" d="M 505.40625 191.652344 C 505.40625 195.441406 499.71875 195.441406 499.71875 191.652344 C 499.71875 187.859375 505.40625 187.859375 505.40625 191.652344 "/>
<path fill-rule="nonzero" fill="rgb(0%, 0%, 0%)" fill-opacity="1" stroke-width="1.03078" stroke-linecap="round" stroke-linejoin="round" stroke="rgb(0%, 0%, 0%)" stroke-opacity="1" stroke-miterlimit="10" d="M 247.035156 275.28125 C 247.035156 279.074219 241.347656 279.074219 241.347656 275.28125 C 241.347656 271.488281 247.035156 271.488281 247.035156 275.28125 "/>
<path fill-rule="nonzero" fill="rgb(0%, 0%, 0%)" fill-opacity="1" stroke-width="1.03078" stroke-linecap="round" stroke-linejoin="round" stroke="rgb(0%, 0%, 0%)" stroke-opacity="1" stroke-miterlimit="10" d="M 392.070312 230.054688 C 392.070312 233.847656 386.382812 233.847656 386.382812 230.054688 C 386.382812 226.265625 392.070312 226.265625 392.070312 230.054688 "/>
<path fill-rule="nonzero" fill="rgb(0%, 0%, 0%)" fill-opacity="1" stroke-width="1.03078" stroke-linecap="round" stroke-linejoin="round" stroke="rgb(0%, 0%, 0%)" stroke-opacity="1" stroke-miterlimit="10" d="M 581.328125 174.015625 C 581.328125 177.808594 575.640625 177.808594 575.640625 174.015625 C 575.640625 170.226562 581.328125 170.226562 581.328125 174.015625 "/>
<path fill-rule="nonzero" fill="rgb(0%, 0%, 0%)" fill-opacity="1" stroke-width="1.03078" stroke-linecap="round" stroke-linejoin="round" stroke="rgb(0%, 0%, 0%)" stroke-opacity="1" stroke-miterlimit="10" d="M 132.75 258.996094 C 132.75 262.789062 127.0625 262.789062 127.0625 258.996094 C 127.0625 255.207031 132.75 255.207031 132.75 258.996094 "/>
<path fill-rule="nonzero" fill="rgb(0%, 0%, 0%)" fill-opacity="1" stroke-width="1.03078" stroke-linecap="round" stroke-linejoin="round" stroke="rgb(0%, 0%, 0%)" stroke-opacity="1" stroke-miterlimit="10" d="M 653.019531 148.042969 C 653.019531 151.835938 647.335938 151.835938 647.335938 148.042969 C 647.335938 144.253906 653.019531 144.253906 653.019531 148.042969 "/>
<path fill-rule="nonzero" fill="rgb(0%, 0%, 0%)" fill-opacity="1" stroke-width="1.03078" stroke-linecap="round" stroke-linejoin="round" stroke="rgb(0%, 0%, 0%)" stroke-opacity="1" stroke-miterlimit="10" d="M 300.34375 266.351562 C 300.34375 270.140625 294.65625 270.140625 294.65625 266.351562 C 294.65625 262.558594 300.34375 262.558594 300.34375 266.351562 "/>
<path fill-rule="nonzero" fill="rgb(0%, 0%, 0%)" fill-opacity="1" stroke-width="1.03078" stroke-linecap="round" stroke-linejoin="round" stroke="rgb(0%, 0%, 0%)" stroke-opacity="1" stroke-miterlimit="10" d="M 629.421875 71.164062 C 629.421875 74.953125 623.734375 74.953125 623.734375 71.164062 C 623.734375 67.371094 629.421875 67.371094 629.421875 71.164062 "/>
<path fill-rule="nonzero" fill="rgb(0%, 0%, 0%)" fill-opacity="1" stroke-width="1.03078" stroke-linecap="round" stroke-linejoin="round" stroke="rgb(0%, 0%, 0%)" stroke-opacity="1" stroke-miterlimit="10" d="M 305.347656 248.910156 C 305.347656 252.699219 299.660156 252.699219 299.660156 248.910156 C 299.660156 245.117188 305.347656 245.117188 305.347656 248.910156 "/>
<path fill-rule="nonzero" fill="rgb(0%, 0%, 0%)" fill-opacity="1" stroke-width="1.03078" stroke-linecap="round" stroke-linejoin="round" stroke="rgb(0%, 0%, 0%)" stroke-opacity="1" stroke-miterlimit="10" d="M 296.859375 249.394531 C 296.859375 253.1875 291.171875 253.1875 291.171875 249.394531 C 291.171875 245.605469 296.859375 245.605469 296.859375 249.394531 "/>
<path fill-rule="nonzero" fill="rgb(0%, 0%, 0%)" fill-opacity="1" stroke-width="1.03078" stroke-linecap="round" stroke-linejoin="round" stroke="rgb(0%, 0%, 0%)" stroke-opacity="1" stroke-miterlimit="10" d="M 390.628906 218.378906 C 390.628906 222.171875 384.941406 222.171875 384.941406 218.378906 C 384.941406 214.589844 390.628906 214.589844 390.628906 218.378906 "/>
<path fill-rule="nonzero" fill="rgb(0%, 0%, 0%)" fill-opacity="1" stroke-width="1.03078" stroke-linecap="round" stroke-linejoin="round" stroke="rgb(0%, 0%, 0%)" stroke-opacity="1" stroke-miterlimit="10" d="M 664.121094 95.957031 C 664.121094 99.75 658.433594 99.75 658.433594 95.957031 C 658.433594 92.167969 664.121094 92.167969 664.121094 95.957031 "/>
<path fill-rule="nonzero" fill="rgb(0%, 0%, 0%)" fill-opacity="1" stroke-width="1.03078" stroke-linecap="round" stroke-linejoin="round" stroke="rgb(0%, 0%, 0%)" stroke-opacity="1" stroke-miterlimit="10" d="M 645.796875 144.390625 C 645.796875 148.183594 640.113281 148.183594 640.113281 144.390625 C 640.113281 140.601562 645.796875 140.601562 645.796875 144.390625 "/>
<path fill-rule="nonzero" fill="rgb(0%, 0%, 0%)" fill-opacity="1" stroke-width="1.03078" stroke-linecap="round" stroke-linejoin="round" stroke="rgb(0%, 0%, 0%)" stroke-opacity="1" stroke-miterlimit="10" d="M 333.828125 231.085938 C 333.828125 234.875 328.144531 234.875 328.144531 231.085938 C 328.144531 227.292969 333.828125 227.292969 333.828125 231.085938 "/>
<path fill-rule="nonzero" fill="rgb(0%, 0%, 0%)" fill-opacity="1" stroke-width="1.03078" stroke-linecap="round" stroke-linejoin="round" stroke="rgb(0%, 0%, 0%)" stroke-opacity="1" stroke-miterlimit="10" d="M 588.566406 194.089844 C 588.566406 197.882812 582.882812 197.882812 582.882812 194.089844 C 582.882812 190.296875 588.566406 190.296875 588.566406 194.089844 "/>
<path fill-rule="nonzero" fill="rgb(0%, 0%, 0%)" fill-opacity="1" stroke-width="1.03078" stroke-linecap="round" stroke-linejoin="round" stroke="rgb(0%, 0%, 0%)" stroke-opacity="1" stroke-miterlimit="10" d="M 709.117188 140.175781 C 709.117188 143.96875 703.433594 143.96875 703.433594 140.175781 C 703.433594 136.386719 709.117188 136.386719 709.117188 140.175781 "/>
<path fill-rule="nonzero" fill="rgb(0%, 0%, 0%)" fill-opacity="1" stroke-width="1.03078" stroke-linecap="round" stroke-linejoin="round" stroke="rgb(0%, 0%, 0%)" stroke-opacity="1" stroke-miterlimit="10" d="M 363.207031 217.359375 C 363.207031 221.148438 357.519531 221.148438 357.519531 217.359375 C 357.519531 213.566406 363.207031 213.566406 363.207031 217.359375 "/>
<path fill-rule="nonzero" fill="rgb(0%, 0%, 0%)" fill-opacity="1" stroke-width="1.03078" stroke-linecap="round" stroke-linejoin="round" stroke="rgb(0%, 0%, 0%)" stroke-opacity="1" stroke-miterlimit="10" d="M 545.945312 201.105469 C 545.945312 204.894531 540.261719 204.894531 540.261719 201.105469 C 540.261719 197.3125 545.945312 197.3125 545.945312 201.105469 "/>
<path fill-rule="nonzero" fill="rgb(0%, 0%, 0%)" fill-opacity="1" stroke-width="1.03078" stroke-linecap="round" stroke-linejoin="round" stroke="rgb(0%, 0%, 0%)" stroke-opacity="1" stroke-miterlimit="10" d="M 340.410156 197.925781 C 340.410156 201.714844 334.722656 201.714844 334.722656 197.925781 C 334.722656 194.132812 340.410156 194.132812 340.410156 197.925781 "/>
<path fill-rule="nonzero" fill="rgb(0%, 0%, 0%)" fill-opacity="1" stroke-width="1.03078" stroke-linecap="round" stroke-linejoin="round" stroke="rgb(0%, 0%, 0%)" stroke-opacity="1" stroke-miterlimit="10" d="M 291.320312 324.578125 C 291.320312 328.367188 285.632812 328.367188 285.632812 324.578125 C 285.632812 320.785156 291.320312 320.785156 291.320312 324.578125 "/>
<path fill-rule="nonzero" fill="rgb(0%, 0%, 0%)" fill-opacity="1" stroke-width="1.03078" stroke-linecap="round" stroke-linejoin="round" stroke="rgb(0%, 0%, 0%)" stroke-opacity="1" stroke-miterlimit="10" d="M 575.261719 143.542969 C 575.261719 147.332031 569.574219 147.332031 569.574219 143.542969 C 569.574219 139.75 575.261719 139.75 575.261719 143.542969 "/>
<path fill-rule="nonzero" fill="rgb(0%, 0%, 0%)" fill-opacity="1" stroke-width="1.03078" stroke-linecap="round" stroke-linejoin="round" stroke="rgb(0%, 0%, 0%)" stroke-opacity="1" stroke-miterlimit="10" d="M 210.648438 348.5 C 210.648438 352.289062 204.960938 352.289062 204.960938 348.5 C 204.960938 344.707031 210.648438 344.707031 210.648438 348.5 "/>
<path fill-rule="nonzero" fill="rgb(0%, 0%, 0%)" fill-opacity="1" stroke-width="1.03078" stroke-linecap="round" stroke-linejoin="round" stroke="rgb(0%, 0%, 0%)" stroke-opacity="1" stroke-miterlimit="10" d="M 545.03125 185.535156 C 545.03125 189.324219 539.34375 189.324219 539.34375 185.535156 C 539.34375 181.742188 545.03125 181.742188 545.03125 185.535156 "/>
<path fill-rule="nonzero" fill="rgb(0%, 0%, 0%)" fill-opacity="1" stroke-width="1.03078" stroke-linecap="round" stroke-linejoin="round" stroke="rgb(0%, 0%, 0%)" stroke-opacity="1" stroke-miterlimit="10" d="M 157.375 308.210938 C 157.375 312.003906 151.691406 312.003906 151.691406 308.210938 C 151.691406 304.421875 157.375 304.421875 157.375 308.210938 "/>
<path fill-rule="nonzero" fill="rgb(0%, 0%, 0%)" fill-opacity="1" stroke-width="1.03078" stroke-linecap="round" stroke-linejoin="round" stroke="rgb(0%, 0%, 0%)" stroke-opacity="1" stroke-miterlimit="10" d="M 238.792969 291.878906 C 238.792969 295.667969 233.109375 295.667969 233.109375 291.878906 C 233.109375 288.085938 238.792969 288.085938 238.792969 291.878906 "/>
<path fill-rule="nonzero" fill="rgb(0%, 0%, 0%)" fill-opacity="1" stroke-width="1.03078" stroke-linecap="round" stroke-linejoin="round" stroke="rgb(0%, 0%, 0%)" stroke-opacity="1" stroke-miterlimit="10" d="M 171.589844 278.257812 C 171.589844 282.046875 165.902344 282.046875 165.902344 278.257812 C 165.902344 274.464844 171.589844 274.464844 171.589844 278.257812 "/>
<path fill-rule="nonzero" fill="rgb(0%, 0%, 0%)" fill-opacity="1" stroke-width="1.03078" stroke-linecap="round" stroke-linejoin="round" stroke="rgb(0%, 0%, 0%)" stroke-opacity="1" stroke-miterlimit="10" d="M 234.941406 362.371094 C 234.941406 366.164062 229.253906 366.164062 229.253906 362.371094 C 229.253906 358.582031 234.941406 358.582031 234.941406 362.371094 "/>
<path fill-rule="nonzero" fill="rgb(0%, 0%, 0%)" fill-opacity="1" stroke-width="1.03078" stroke-linecap="round" stroke-linejoin="round" stroke="rgb(0%, 0%, 0%)" stroke-opacity="1" stroke-miterlimit="10" d="M 116.101562 226.210938 C 116.101562 230.003906 110.414062 230.003906 110.414062 226.210938 C 110.414062 222.421875 116.101562 222.421875 116.101562 226.210938 "/>
<path fill-rule="nonzero" fill="rgb(0%, 0%, 0%)" fill-opacity="1" stroke-width="1.03078" stroke-linecap="round" stroke-linejoin="round" stroke="rgb(0%, 0%, 0%)" stroke-opacity="1" stroke-miterlimit="10" d="M 499.761719 273.390625 C 499.761719 277.183594 494.074219 277.183594 494.074219 273.390625 C 494.074219 269.601562 499.761719 269.601562 499.761719 273.390625 "/>
<path fill-rule="nonzero" fill="rgb(0%, 0%, 0%)" fill-opacity="1" stroke-width="1.03078" stroke-linecap="round" stroke-linejoin="round" stroke="rgb(0%, 0%, 0%)" stroke-opacity="1" stroke-miterlimit="10" d="M 653.644531 163.601562 C 653.644531 167.390625 647.957031 167.390625 647.957031 163.601562 C 647.957031 159.808594 653.644531 159.808594 653.644531 163.601562 "/>
<path fill-rule="nonzero" fill="rgb(0%, 0%, 0%)" fill-opacity="1" stroke-width="1.03078" stroke-linecap="round" stroke-linejoin="round" stroke="rgb(0%, 0%, 0%)" stroke-opacity="1" stroke-miterlimit="10" d="M 589.617188 217.667969 C 589.617188 221.457031 583.929688 221.457031 583.929688 217.667969 C 583.929688 213.875 589.617188 213.875 589.617188 217.667969 "/>
<path fill-rule="nonzero" fill="rgb(0%, 0%, 0%)" fill-opacity="1" stroke-width="1.03078" stroke-linecap="round" stroke-linejoin="round" stroke="rgb(0%, 0%, 0%)" stroke-opacity="1" stroke-miterlimit="10" d="M 601.714844 194.15625 C 601.714844 197.945312 596.027344 197.945312 596.027344 194.15625 C 596.027344 190.363281 601.714844 190.363281 601.714844 194.15625 "/>
<path fill-rule="nonzero" fill="rgb(0%, 0%, 0%)" fill-opacity="1" stroke-width="1.03078" stroke-linecap="round" stroke-linejoin="round" stroke="rgb(0%, 0%, 0%)" stroke-opacity="1" stroke-miterlimit="10" d="M 376.765625 102.0625 C 376.765625 105.855469 371.078125 105.855469 371.078125 102.0625 C 371.078125 98.269531 376.765625 98.269531 376.765625 102.0625 "/>
<path fill-rule="nonzero" fill="rgb(0%, 0%, 0%)" fill-opacity="1" stroke-width="1.03078" stroke-linecap="round" stroke-linejoin="round" stroke="rgb(0%, 0%, 0%)" stroke-opacity="1" stroke-miterlimit="10" d="M 347.046875 224.304688 C 347.046875 228.09375 341.359375 228.09375 341.359375 224.304688 C 341.359375 220.511719 347.046875 220.511719 347.046875 224.304688 "/>
<path fill-rule="nonzero" fill="rgb(0%, 0%, 0%)" fill-opacity="1" stroke-width="1.03078" stroke-linecap="round" stroke-linejoin="round" stroke="rgb(0%, 0%, 0%)" stroke-opacity="1" stroke-miterlimit="10" d="M 610.632812 221.0625 C 610.632812 224.851562 604.945312 224.851562 604.945312 221.0625 C 604.945312 217.269531 610.632812 217.269531 610.632812 221.0625 "/>
<path fill-rule="nonzero" fill="rgb(0%, 0%, 0%)" fill-opacity="1" stroke-width="1.03078" stroke-linecap="round" stroke-linejoin="round" stroke="rgb(0%, 0%, 0%)" stroke-opacity="1" stroke-miterlimit="10" d="M 475.191406 279.035156 C 475.191406 282.828125 469.507812 282.828125 469.507812 279.035156 C 469.507812 275.246094 475.191406 275.246094 475.191406 279.035156 "/>
<path fill-rule="nonzero" fill="rgb(60%, 60%, 60%)" fill-opacity="0.4" d="M 83.304688 287.046875 L 91.453125 284.9375 L 107.742188 280.71875 L 115.890625 278.601562 L 124.035156 276.484375 L 132.183594 274.367188 L 140.328125 272.242188 L 148.476562 270.113281 L 156.621094 267.984375 L 164.765625 265.851562 L 172.914062 263.710938 L 181.058594 261.566406 L 189.207031 259.417969 L 197.351562 257.265625 L 205.5 255.109375 L 221.789062 250.773438 L 229.9375 248.59375 L 238.082031 246.410156 L 246.230469 244.21875 L 254.375 242.015625 L 262.519531 239.808594 L 270.667969 237.589844 L 278.8125 235.359375 L 286.960938 233.117188 L 295.105469 230.867188 L 303.253906 228.601562 L 311.398438 226.324219 L 319.542969 224.03125 L 327.691406 221.726562 L 335.835938 219.402344 L 343.984375 217.0625 L 352.128906 214.707031 L 360.273438 212.332031 L 368.421875 209.933594 L 376.566406 207.519531 L 384.714844 205.082031 L 392.859375 202.625 L 401.007812 200.148438 L 409.152344 197.648438 L 417.296875 195.125 L 425.445312 192.578125 L 433.589844 190.011719 L 441.738281 187.421875 L 449.882812 184.8125 L 458.027344 182.179688 L 466.175781 179.527344 L 474.320312 176.855469 L 482.46875 174.167969 L 490.613281 171.457031 L 498.761719 168.730469 L 506.90625 165.992188 L 515.050781 163.234375 L 523.199219 160.460938 L 531.34375 157.675781 L 539.492188 154.875 L 547.636719 152.066406 L 555.78125 149.246094 L 563.929688 146.410156 L 572.074219 143.570312 L 580.222656 140.71875 L 588.367188 137.859375 L 596.515625 134.992188 L 612.804688 129.234375 L 620.953125 126.34375 L 629.097656 123.449219 L 637.246094 120.546875 L 645.390625 117.644531 L 653.535156 114.730469 L 661.683594 111.816406 L 669.828125 108.898438 L 677.976562 105.972656 L 686.121094 103.046875 L 694.269531 100.113281 L 702.414062 97.179688 L 710.558594 94.242188 L 718.707031 91.304688 L 726.851562 88.359375 L 726.851562 130.292969 L 718.707031 132.40625 L 710.558594 134.523438 L 702.414062 136.640625 L 694.269531 138.761719 L 686.121094 140.886719 L 677.976562 143.015625 L 669.828125 145.148438 L 661.683594 147.285156 L 653.535156 149.425781 L 645.390625 151.570312 L 637.246094 153.722656 L 629.097656 155.878906 L 620.953125 158.039062 L 612.804688 160.207031 L 604.660156 162.378906 L 596.515625 164.5625 L 588.367188 166.75 L 580.222656 168.945312 L 572.074219 171.148438 L 563.929688 173.363281 L 555.78125 175.585938 L 547.636719 177.820312 L 539.492188 180.066406 L 531.34375 182.324219 L 523.199219 184.59375 L 515.050781 186.878906 L 506.90625 189.175781 L 498.761719 191.492188 L 490.613281 193.820312 L 482.46875 196.167969 L 474.320312 198.535156 L 466.175781 200.917969 L 458.027344 203.324219 L 449.882812 205.75 L 441.738281 208.195312 L 433.589844 210.660156 L 425.445312 213.148438 L 417.296875 215.660156 L 409.152344 218.195312 L 401.007812 220.75 L 392.859375 223.324219 L 384.714844 225.925781 L 376.566406 228.546875 L 368.421875 231.1875 L 360.273438 233.847656 L 352.128906 236.527344 L 343.984375 239.226562 L 335.835938 241.941406 L 327.691406 244.675781 L 319.542969 247.425781 L 311.398438 250.1875 L 303.253906 252.96875 L 295.105469 255.757812 L 286.960938 258.5625 L 278.8125 261.378906 L 270.667969 264.207031 L 262.519531 267.042969 L 254.375 269.890625 L 246.230469 272.746094 L 238.082031 275.609375 L 229.9375 278.480469 L 221.789062 281.359375 L 213.644531 284.242188 L 205.5 287.132812 L 197.351562 290.03125 L 189.207031 292.933594 L 181.058594 295.84375 L 172.914062 298.757812 L 164.765625 301.671875 L 156.621094 304.59375 L 148.476562 307.519531 L 140.328125 310.449219 L 132.183594 313.382812 L 124.035156 316.316406 L 115.890625 319.257812 L 107.742188 322.199219 L 99.597656 325.140625 L 91.453125 328.089844 L 83.304688 331.039062 Z M 83.304688 287.046875 "/>
<path fill="none" stroke-width="3.103937" stroke-linecap="butt" stroke-linejoin="round" stroke="rgb(20%, 40%, 100%)" stroke-opacity="1" stroke-miterlimit="10" d="M 83.304688 309.042969 L 91.453125 306.515625 L 99.597656 303.984375 L 107.742188 301.457031 L 115.890625 298.929688 L 124.035156 296.402344 L 132.183594 293.875 L 140.328125 291.34375 L 148.476562 288.816406 L 164.765625 283.761719 L 172.914062 281.234375 L 181.058594 278.707031 L 189.207031 276.175781 L 197.351562 273.648438 L 205.5 271.121094 L 221.789062 266.066406 L 229.9375 263.539062 L 238.082031 261.007812 L 246.230469 258.480469 L 262.519531 253.425781 L 270.667969 250.898438 L 278.8125 248.367188 L 286.960938 245.839844 L 295.105469 243.3125 L 303.253906 240.785156 L 319.542969 235.730469 L 327.691406 233.199219 L 335.835938 230.671875 L 343.984375 228.144531 L 360.273438 223.089844 L 368.421875 220.558594 L 376.566406 218.03125 L 384.714844 215.503906 L 392.859375 212.976562 L 401.007812 210.449219 L 409.152344 207.921875 L 417.296875 205.390625 L 425.445312 202.863281 L 433.589844 200.335938 L 441.738281 197.808594 L 458.027344 192.753906 L 466.175781 190.222656 L 474.320312 187.695312 L 482.46875 185.167969 L 490.613281 182.640625 L 498.761719 180.113281 L 506.90625 177.582031 L 515.050781 175.054688 L 523.199219 172.527344 L 531.34375 170 L 539.492188 167.472656 L 547.636719 164.945312 L 555.78125 162.414062 L 563.929688 159.886719 L 572.074219 157.359375 L 580.222656 154.832031 L 588.367188 152.304688 L 596.515625 149.777344 L 604.660156 147.246094 L 612.804688 144.71875 L 620.953125 142.191406 L 629.097656 139.664062 L 637.246094 137.136719 L 645.390625 134.605469 L 653.535156 132.078125 L 661.683594 129.550781 L 669.828125 127.023438 L 677.976562 124.496094 L 686.121094 121.96875 L 694.269531 119.4375 L 710.558594 114.382812 L 718.707031 111.855469 L 726.851562 109.328125 "/>
<g clip-path="url(#clip-17)">
<path fill="none" stroke-width="1.551969" stroke-linecap="round" stroke-linejoin="round" stroke="rgb(20%, 20%, 20%)" stroke-opacity="1" stroke-miterlimit="10" d="M 51.128906 384.871094 L 759.03125 384.871094 L 759.03125 7.96875 L 51.128906 7.96875 Z M 51.128906 384.871094 "/>
</g>
<g fill="rgb(30.196078%, 30.196078%, 30.196078%)" fill-opacity="1">
<use xlink:href="#glyph-0-1" x="27.957031" y="306.381836"/>
<use xlink:href="#glyph-0-2" x="33.957031" y="306.381836"/>
<use xlink:href="#glyph-0-3" x="36.957031" y="306.381836"/>
</g>
<g fill="rgb(30.196078%, 30.196078%, 30.196078%)" fill-opacity="1">
<use xlink:href="#glyph-0-1" x="28.957031" y="196.424805"/>
<use xlink:href="#glyph-0-2" x="34.957031" y="196.424805"/>
<use xlink:href="#glyph-0-4" x="37.957031" y="196.424805"/>
</g>
<g fill="rgb(30.196078%, 30.196078%, 30.196078%)" fill-opacity="1">
<use xlink:href="#glyph-0-5" x="27.957031" y="86.467773"/>
<use xlink:href="#glyph-0-2" x="33.957031" y="86.467773"/>
<use xlink:href="#glyph-0-3" x="36.957031" y="86.467773"/>
</g>
<path fill="none" stroke-width="1.551969" stroke-linecap="butt" stroke-linejoin="round" stroke="rgb(20%, 20%, 20%)" stroke-opacity="1" stroke-miterlimit="10" d="M 47.144531 301.914062 L 51.128906 301.914062 "/>
<path fill="none" stroke-width="1.551969" stroke-linecap="butt" stroke-linejoin="round" stroke="rgb(20%, 20%, 20%)" stroke-opacity="1" stroke-miterlimit="10" d="M 47.144531 191.957031 L 51.128906 191.957031 "/>
<path fill="none" stroke-width="1.551969" stroke-linecap="butt" stroke-linejoin="round" stroke="rgb(20%, 20%, 20%)" stroke-opacity="1" stroke-miterlimit="10" d="M 47.144531 82 L 51.128906 82 "/>
<path fill="none" stroke-width="1.551969" stroke-linecap="butt" stroke-linejoin="round" stroke="rgb(20%, 20%, 20%)" stroke-opacity="1" stroke-miterlimit="10" d="M 74.5 388.855469 L 74.5 384.871094 "/>
<path fill="none" stroke-width="1.551969" stroke-linecap="butt" stroke-linejoin="round" stroke="rgb(20%, 20%, 20%)" stroke-opacity="1" stroke-miterlimit="10" d="M 238.917969 388.855469 L 238.917969 384.871094 "/>
<path fill="none" stroke-width="1.551969" stroke-linecap="butt" stroke-linejoin="round" stroke="rgb(20%, 20%, 20%)" stroke-opacity="1" stroke-miterlimit="10" d="M 403.335938 388.855469 L 403.335938 384.871094 "/>
<path fill="none" stroke-width="1.551969" stroke-linecap="butt" stroke-linejoin="round" stroke="rgb(20%, 20%, 20%)" stroke-opacity="1" stroke-miterlimit="10" d="M 567.757812 388.855469 L 567.757812 384.871094 "/>
<path fill="none" stroke-width="1.551969" stroke-linecap="butt" stroke-linejoin="round" stroke="rgb(20%, 20%, 20%)" stroke-opacity="1" stroke-miterlimit="10" d="M 732.175781 388.855469 L 732.175781 384.871094 "/>
<g fill="rgb(30.196078%, 30.196078%, 30.196078%)" fill-opacity="1">
<use xlink:href="#glyph-0-3" x="62.5" y="401.010742"/>
<use xlink:href="#glyph-0-2" x="69.5" y="401.010742"/>
<use xlink:href="#glyph-0-3" x="72.5" y="401.010742"/>
<use xlink:href="#glyph-0-3" x="79.5" y="401.010742"/>
</g>
<g fill="rgb(30.196078%, 30.196078%, 30.196078%)" fill-opacity="1">
<use xlink:href="#glyph-0-3" x="227.917969" y="401.010742"/>
<use xlink:href="#glyph-0-2" x="234.917969" y="401.010742"/>
<use xlink:href="#glyph-0-1" x="237.917969" y="401.010742"/>
<use xlink:href="#glyph-0-4" x="243.917969" y="401.010742"/>
</g>
<g fill="rgb(30.196078%, 30.196078%, 30.196078%)" fill-opacity="1">
<use xlink:href="#glyph-0-3" x="391.835938" y="401.010742"/>
<use xlink:href="#glyph-0-2" x="398.835938" y="401.010742"/>
<use xlink:href="#glyph-0-4" x="401.835938" y="401.010742"/>
<use xlink:href="#glyph-0-3" x="407.835938" y="401.010742"/>
</g>
<g fill="rgb(30.196078%, 30.196078%, 30.196078%)" fill-opacity="1">
<use xlink:href="#glyph-0-3" x="556.757812" y="401.010742"/>
<use xlink:href="#glyph-0-2" x="563.757812" y="401.010742"/>
<use xlink:href="#glyph-0-6" x="566.757812" y="401.010742"/>
<use xlink:href="#glyph-0-4" x="572.757812" y="401.010742"/>
</g>
<g fill="rgb(30.196078%, 30.196078%, 30.196078%)" fill-opacity="1">
<use xlink:href="#glyph-0-7" x="720.675781" y="401.010742"/>
<use xlink:href="#glyph-0-2" x="726.675781" y="401.010742"/>
<use xlink:href="#glyph-0-3" x="729.675781" y="401.010742"/>
<use xlink:href="#glyph-0-3" x="736.675781" y="401.010742"/>
</g>
<g fill="rgb(0%, 0%, 0%)" fill-opacity="1">
<use xlink:href="#glyph-1-1" x="401.078125" y="419.991211"/>
</g>
<g fill="rgb(0%, 0%, 0%)" fill-opacity="1">
<use xlink:href="#glyph-2-1" x="19.928711" y="200.421875"/>
</g>
</svg>
